<?xml version="1.0" encoding="utf-8"?>
<!-- Generator: Adobe Illustrator 21.1.0, SVG Export Plug-In . SVG Version: 6.00 Build 0)  -->
<svg version="1.1" id="Layer_1" xmlns="http://www.w3.org/2000/svg" xmlns:xlink="http://www.w3.org/1999/xlink" x="0px" y="0px"
	 viewBox="0 0 40 40" style="enable-background:new 0 0 40 40;" xml:space="preserve">
<style type="text/css">
	.st0{fill:#FFFFFF;}
</style>
<g id="TkERNp.tif">
	<g>
		<path class="st0" d="M0,20C0,8.9,9,0,20.1,0c10.8,0,20,8.7,19.9,20c0,11.1-8.9,20-20,20C8.7,40,0,30.8,0,20z M22,29.5
			c0-0.2,0-0.4,0-0.6c0-2.4,0-4.7,0-7.1c0-0.6,0.1-1.2,0.5-1.7c0.6-0.8,1.5-1.2,2.6-1c0.9,0.2,1.3,0.9,1.5,1.8
			c0.1,0.4,0.1,0.8,0.1,1.2c0,2.3,0,4.6,0,6.8c0,0.4,0.1,0.5,0.5,0.5c1.2,0,2.5,0,3.7,0c0.4,0,0.5-0.1,0.5-0.5c0-2.3,0-4.7,0-7
			c0-0.7-0.1-1.4-0.2-2.1c-0.2-1.4-0.8-2.6-2-3.5c-1.8-1.3-5.3-1.5-7,0.9c0,0.1-0.1,0.1-0.2,0.2c0-0.5,0-0.9,0-1.3
			c0-0.4-0.1-0.5-0.5-0.5c-1.2,0-2.4,0-3.6,0c-0.4,0-0.5,0.1-0.5,0.5c0,4.2,0,8.5,0,12.7c0,0.1,0,0.2,0,0.3c0.1,0.1,0.2,0.3,0.3,0.3
			C19.1,29.5,20.5,29.5,22,29.5z M10.3,22.6c0,2.1,0,4.3,0,6.4c0,0.4,0.1,0.5,0.5,0.5c1.2,0,2.5,0,3.7,0c0.4,0,0.5-0.1,0.5-0.5
			c0-4.2,0-8.5,0-12.7c0-0.4-0.2-0.5-0.6-0.5c-1.2,0-2.4,0-3.5,0c-0.6,0-0.6,0-0.6,0.6C10.3,18.4,10.3,20.5,10.3,22.6z M15.3,11.6
			c0-1.4-1.1-2.5-2.6-2.5c-1.5,0-2.6,1-2.6,2.4c0,1.4,1.1,2.4,2.6,2.4C14.1,14,15.3,13,15.3,11.6z"/>
	</g>
</g>
</svg>
