<?xml version="1.0" encoding="utf-8"?>
<!-- Generator: Adobe Illustrator 21.1.0, SVG Export Plug-In . SVG Version: 6.00 Build 0)  -->
<svg version="1.1" id="Layer_1" xmlns="http://www.w3.org/2000/svg" xmlns:xlink="http://www.w3.org/1999/xlink" x="0px" y="0px"
	 viewBox="0 0 766.4 702.3" style="enable-background:new 0 0 766.4 702.3;" xml:space="preserve">
<style type="text/css">
	.st0{fill:#F8F8F8;}
	.st1{fill:url(#SVGID_1_);}
	.st2{fill:#B0D0FE;}
	.st3{fill:#FFFFFF;}
	.st4{fill:url(#SVGID_2_);}
	.st5{fill:#FFD25A;}
	.st6{fill:#2A46FF;}
	.st7{fill:#D4143F;}
</style>
<rect x="154" y="202" class="st0" width="273.3" height="184.6"/>
<linearGradient id="SVGID_1_" gradientUnits="userSpaceOnUse" x1="461.4454" y1="514.3835" x2="136.9718" y2="85.311">
	<stop  offset="0" style="stop-color:#E6E6E6;stop-opacity:0"/>
	<stop  offset="1" style="stop-color:#E6E6E6"/>
</linearGradient>
<polygon class="st1" points="212.7,431.8 337.6,616.2 738.8,707.8 437.3,216.8 "/>
<rect x="193.7" y="250.5" transform="matrix(0.9815 -0.1917 0.1917 0.9815 -57.1452 68.0654)" class="st2" width="259" height="157.7"/>
<rect x="167.4" y="216.8" class="st3" width="259" height="157.7"/>
<linearGradient id="SVGID_2_" gradientUnits="userSpaceOnUse" x1="598.3549" y1="425.4979" x2="378.3122" y2="111.2327">
	<stop  offset="0" style="stop-color:#E6E6E6;stop-opacity:0"/>
	<stop  offset="1" style="stop-color:#E6E6E6"/>
</linearGradient>
<polygon class="st4" points="396.4,248.5 542.3,486.4 654.4,406.6 520.2,172.9 "/>
<g id="Text_3_">
	<rect x="273.4" y="252.1" class="st0" width="99.5" height="9.7"/>
	<rect x="273.4" y="271.4" class="st0" width="99.5" height="9.7"/>
	<rect x="273.4" y="290.7" class="st0" width="99.5" height="9.7"/>
	<rect x="273.4" y="329.4" class="st0" width="99.5" height="9.7"/>
	<rect x="273.4" y="310.1" class="st0" width="99.5" height="9.7"/>
	<rect x="382.1" y="252.1" class="st2" width="12.9" height="9.7"/>
	<rect x="382.1" y="271.4" class="st2" width="12.9" height="9.7"/>
	<rect x="382.1" y="290.7" class="st2" width="12.9" height="9.7"/>
	<rect x="382.1" y="329.4" class="st5" width="12.9" height="9.7"/>
	<rect x="382.1" y="310.1" class="st2" width="12.9" height="9.7"/>
</g>
<circle class="st6" cx="225.5" cy="277.3" r="12.8"/>
<path class="st6" d="M199.9,324.2c0-14.1,11.5-25.6,25.6-25.6c14.1,0,25.6,11.5,25.6,25.6"/>
<g>
	<circle class="st7" cx="457.4" cy="208.7" r="72.1"/>
</g>
<g>
	<path class="st3" d="M457.4,243.4L457.4,243.4c-2.7,0-4.9-2.2-4.9-4.9v-59.7c0-2.7,2.2-4.9,4.9-4.9l0,0c2.7,0,4.9,2.2,4.9,4.9v59.7
		C462.3,241.2,460.1,243.4,457.4,243.4z"/>
</g>
<g>
	<path class="st3" d="M487.2,213.6h-59.7c-2.7,0-4.9-2.2-4.9-4.9v0c0-2.7,2.2-4.9,4.9-4.9h59.7c2.7,0,4.9,2.2,4.9,4.9v0
		C492.2,211.4,490,213.6,487.2,213.6z"/>
</g>
</svg>
