<?xml version="1.0" encoding="utf-8"?>
<!-- Generator: Adobe Illustrator 21.1.0, SVG Export Plug-In . SVG Version: 6.00 Build 0)  -->
<svg version="1.1" id="Layer_1" xmlns="http://www.w3.org/2000/svg" xmlns:xlink="http://www.w3.org/1999/xlink" x="0px" y="0px"
	 viewBox="0 0 766.4 702.3" style="enable-background:new 0 0 766.4 702.3;" xml:space="preserve">
<style type="text/css">
	.st0{fill:url(#SVGID_1_);}
	.st1{fill:url(#SVGID_2_);}
	.st2{opacity:0.63;fill:url(#SVGID_3_);}
	.st3{fill:#3474D5;}
	.st4{fill:#FFFFFF;}
	.st5{fill:#F8F8F8;}
	.st6{fill:#B0D0FE;}
	.st7{fill:#FFD25A;}
	.st8{fill:#2A46FF;}
	.st9{fill:#88AFE7;}
</style>
<linearGradient id="SVGID_1_" gradientUnits="userSpaceOnUse" x1="244.9765" y1="581.6263" x2="-96.8566" y2="71.0461">
	<stop  offset="0" style="stop-color:#E6E6E6;stop-opacity:0"/>
	<stop  offset="1" style="stop-color:#E6E6E6"/>
</linearGradient>
<polygon class="st0" points="111.2,533.1 225.3,680.7 237.6,492.1 166.3,312.7 "/>
<linearGradient id="SVGID_2_" gradientUnits="userSpaceOnUse" x1="651.3139" y1="696.058" x2="228.3024" y2="177.9406">
	<stop  offset="0" style="stop-color:#E6E6E6;stop-opacity:0"/>
	<stop  offset="1" style="stop-color:#E6E6E6"/>
</linearGradient>
<polygon class="st1" points="225.3,544.9 339.4,692.5 766.4,702.3 520.4,157.3 "/>
<linearGradient id="SVGID_3_" gradientUnits="userSpaceOnUse" x1="33.765" y1="145.1271" x2="413.2289" y2="318.3607">
	<stop  offset="0" style="stop-color:#0000B9"/>
	<stop  offset="1" style="stop-color:#00008A;stop-opacity:0"/>
</linearGradient>
<polygon class="st2" points="280.4,389.5 394.5,537 506.7,177 463.4,114 "/>
<rect x="203.3" y="127.8" transform="matrix(0.9938 -0.1112 0.1112 0.9938 -34.515 40.3197)" class="st3" width="281.9" height="403.7"/>
<rect x="237.6" y="156.6" class="st4" width="281.9" height="403.7"/>
<g id="Text">
	<rect x="344.3" y="205.5" class="st5" width="129.1" height="8.2"/>
	<rect x="344.3" y="221.8" class="st5" width="129.1" height="8.2"/>
	<rect x="344.3" y="238.1" class="st5" width="129.1" height="8.2"/>
	<rect x="344.3" y="270.8" class="st5" width="129.1" height="8.2"/>
	<rect x="260.1" y="287.2" class="st5" width="213.2" height="8.2"/>
	<rect x="260.1" y="320.2" class="st5" width="213.2" height="8.2"/>
	<rect x="260.1" y="336.5" class="st5" width="213.2" height="8.2"/>
	<rect x="260.1" y="352.9" class="st5" width="213.2" height="8.2"/>
	<rect x="260.1" y="369.2" class="st5" width="213.2" height="8.2"/>
	<rect x="260.1" y="303.5" class="st5" width="213.2" height="8.2"/>
	<rect x="260.1" y="434.9" class="st5" width="241.8" height="8.2"/>
	<rect x="260.1" y="451.2" class="st5" width="241.8" height="8.2"/>
	<rect x="260.1" y="467.6" class="st5" width="154.9" height="8.2"/>
	<rect x="260.1" y="483.9" class="st5" width="154.9" height="8.2"/>
	<rect x="260.1" y="418.2" class="st5" width="241.8" height="8.2"/>
	<rect x="344.3" y="254.5" class="st5" width="129.1" height="8.2"/>
	<rect x="485.3" y="205.5" class="st6" width="16.7" height="8.2"/>
	<rect x="485.3" y="221.8" class="st6" width="16.7" height="8.2"/>
	<rect x="485.3" y="238.1" class="st6" width="16.7" height="8.2"/>
	<rect x="485.3" y="270.8" class="st7" width="16.7" height="8.2"/>
	<rect x="485.3" y="254.5" class="st6" width="16.7" height="8.2"/>
	<rect x="485.3" y="287.5" class="st6" width="16.7" height="8.2"/>
	<rect x="485.3" y="303.8" class="st6" width="16.7" height="8.2"/>
	<rect x="485.3" y="320.2" class="st6" width="16.7" height="8.2"/>
	<rect x="485.3" y="352.9" class="st6" width="16.7" height="8.2"/>
	<rect x="485.3" y="369.2" class="st6" width="16.7" height="8.2"/>
	<rect x="485.3" y="336.5" class="st7" width="16.7" height="8.2"/>
</g>
<rect x="260.1" y="205.5" class="st6" width="73" height="73.5"/>
<circle class="st8" cx="297.1" cy="227.2" r="10.8"/>
<path class="st8" d="M275.5,266.8c0-12,9.7-21.6,21.6-21.6s21.6,9.7,21.6,21.6"/>
<g>
	<g>
		<polygon class="st6" points="167.2,322.7 159.7,321.1 151.2,344.7 165.6,347.7 		"/>
		<path class="st7" d="M164.6,313.5l-3,5.6l4.6,0.9l-0.5-6.3C165.5,313.1,164.8,312.9,164.6,313.5z"/>
		
			<rect x="129.4" y="471.1" transform="matrix(0.2013 -0.9795 0.9795 0.2013 -365.1107 511.3241)" class="st9" width="3.2" height="16.9"/>
		
			<rect x="78.5" y="403.7" transform="matrix(0.2013 -0.9795 0.9795 0.2013 -289.1913 471.6662)" class="st6" width="132.4" height="18.9"/>
		
			<rect x="100.1" y="496.5" transform="matrix(0.2013 -0.9795 0.9795 0.2013 -395.3566 527.1229)" class="st6" width="50.8" height="18.9"/>
		
			<rect x="120.6" y="523" transform="matrix(0.2013 -0.9795 0.9795 0.2013 -424.4983 546.0839)" class="st9" width="4" height="20.6"/>
		<polygon class="st9" points="145.2,474.5 132.3,537.4 130.3,536.9 142,480.2 		"/>
		
			<rect x="157.1" y="338.6" transform="matrix(0.2013 -0.9795 0.9795 0.2013 -213.8147 432.2929)" class="st9" width="2.2" height="17.3"/>
		
			<rect x="162.4" y="317.9" transform="matrix(0.2013 -0.9795 0.9795 0.2013 -183.499 416.4556)" class="st9" width="2.4" height="5.7"/>
	</g>
</g>
</svg>
