<?xml version="1.0" encoding="utf-8"?>
<!-- Generator: Adobe Illustrator 21.1.0, SVG Export Plug-In . SVG Version: 6.00 Build 0)  -->
<svg version="1.1" id="Layer_1" xmlns="http://www.w3.org/2000/svg" xmlns:xlink="http://www.w3.org/1999/xlink" x="0px" y="0px"
	 viewBox="0 0 766.4 702.3" style="enable-background:new 0 0 766.4 702.3;" xml:space="preserve">
<style type="text/css">
	.st0{fill:#F8F8F8;}
	.st1{fill:url(#SVGID_1_);}
	.st2{fill:#FFFFFF;}
	.st3{fill:#EAEAEA;}
	.st4{fill:#B0D0FE;}
	.st5{fill:#2A46FF;}
	.st6{fill:none;stroke:#FFD25A;stroke-width:1.9024;stroke-miterlimit:10;}
	.st7{fill:none;stroke:#FFD25A;stroke-width:1.9024;stroke-miterlimit:10;stroke-dasharray:10.9383,10.9383;}
	.st8{fill:none;stroke:#FFD25A;stroke-width:1.9024;stroke-miterlimit:10;stroke-dasharray:11.6826,11.6826;}
	.st9{fill:url(#SVGID_2_);}
	.st10{fill:#D4143F;}
</style>
<rect x="181.8" y="153" transform="matrix(0.9998 -2.039834e-02 2.039834e-02 0.9998 -6.9763 6.5862)" class="st0" width="275.2" height="384.5"/>
<linearGradient id="SVGID_1_" gradientUnits="userSpaceOnUse" x1="482.7338" y1="586.964" x2="88.4882" y2="179.3477">
	<stop  offset="0" style="stop-color:#E6E6E6;stop-opacity:0"/>
	<stop  offset="1" style="stop-color:#E6E6E6"/>
</linearGradient>
<polygon class="st1" points="186.4,539.6 312.2,797.5 604.5,486.8 441.9,157.9 "/>
<rect x="191.9" y="164" transform="matrix(0.9998 -2.039832e-02 2.039832e-02 0.9998 -7.0887 6.6481)" class="st2" width="260.9" height="373.7"/>
<g id="Text_2_">
	
		<rect x="258.2" y="311.8" transform="matrix(-0.9998 2.039821e-02 -2.039821e-02 -0.9998 623.9935 624.8066)" class="st3" width="101.3" height="7.6"/>
	
		<rect x="258.5" y="326.9" transform="matrix(-0.9998 2.039821e-02 -2.039821e-02 -0.9998 624.919 655.0425)" class="st3" width="101.3" height="7.6"/>
	
		<rect x="258.8" y="342" transform="matrix(-0.9998 2.039821e-02 -2.039821e-02 -0.9998 625.8445 685.2783)" class="st3" width="101.3" height="7.6"/>
	
		<rect x="259.4" y="372.3" transform="matrix(-0.9998 2.039821e-02 -2.039821e-02 -0.9998 627.6955 745.7501)" class="st3" width="101.3" height="7.6"/>
	<polygon class="st3" points="259.8,396 410.9,392.5 410.8,385 259.7,388.5 	"/>
	<polygon class="st3" points="260.4,426.5 411.6,423.1 411.4,415.5 260.3,419 	"/>
	<polygon class="st3" points="260.7,441.7 411.9,438.2 411.7,430.6 260.6,434.1 	"/>
	<polygon class="st3" points="261.1,456.8 412.2,453.3 412,445.8 260.9,449.2 	"/>
	<polygon class="st3" points="261.4,471.9 412.5,468.4 412.3,460.9 261.2,464.4 	"/>
	<polygon class="st3" points="260.1,411.1 411.3,407.7 411.1,400.1 260,403.6 	"/>
	
		<rect x="259.1" y="357.2" transform="matrix(-0.9998 2.039821e-02 -2.039821e-02 -0.9998 626.77 715.5142)" class="st3" width="101.3" height="7.6"/>
	
		<rect x="235.8" y="313.2" transform="matrix(-0.9998 2.039821e-02 -2.039821e-02 -0.9998 491.0261 628.8766)" class="st4" width="13.1" height="7.6"/>
	
		<rect x="236.1" y="328.3" transform="matrix(-0.9998 2.039821e-02 -2.039821e-02 -0.9998 491.9516 659.1125)" class="st4" width="13.1" height="7.6"/>
	
		<rect x="236.4" y="343.4" transform="matrix(-0.9998 2.039821e-02 -2.039821e-02 -0.9998 492.8771 689.3483)" class="st4" width="13.1" height="7.6"/>
	
		<rect x="237" y="373.7" transform="matrix(-0.9998 2.039821e-02 -2.039821e-02 -0.9998 494.7281 749.82)" class="st5" width="13.1" height="7.6"/>
	
		<rect x="236.7" y="358.5" transform="matrix(-0.9998 2.039821e-02 -2.039821e-02 -0.9998 493.8026 719.5842)" class="st4" width="13.1" height="7.6"/>
	
		<rect x="237.3" y="389.1" transform="matrix(-0.9998 2.039821e-02 -2.039821e-02 -0.9998 495.6714 780.6394)" class="st4" width="13.1" height="7.6"/>
	
		<rect x="237.6" y="404.2" transform="matrix(-0.9998 2.039821e-02 -2.039821e-02 -0.9998 496.597 810.8753)" class="st4" width="13.1" height="7.6"/>
	
		<rect x="237.9" y="419.3" transform="matrix(-0.9998 2.039821e-02 -2.039821e-02 -0.9998 497.5225 841.1111)" class="st4" width="13.1" height="7.6"/>
	
		<rect x="238.5" y="449.6" transform="matrix(-0.9998 2.039821e-02 -2.039821e-02 -0.9998 499.3734 901.5828)" class="st4" width="13.1" height="7.6"/>
	
		<rect x="238.8" y="464.7" transform="matrix(-0.9998 2.039821e-02 -2.039821e-02 -0.9998 500.299 931.8187)" class="st4" width="13.1" height="7.6"/>
	
		<rect x="238.2" y="434.4" transform="matrix(-0.9998 2.039821e-02 -2.039821e-02 -0.9998 498.4479 871.347)" class="st5" width="13.1" height="7.6"/>
</g>
<circle class="st5" cx="319.1" cy="250.4" r="36.7"/>
<ellipse transform="matrix(0.9994 -3.525741e-02 3.525741e-02 0.9994 -8.1624 11.3981)" class="st4" cx="319.1" cy="237.1" rx="9.2" ry="9.2"/>
<path class="st4" d="M300.6,269.8c-0.4-10.2,7.6-18.8,17.8-19.1c10.2-0.4,18.8,7.6,19.1,17.8"/>
<g>
	<g>
		<polyline class="st6" points="215.8,510.4 215.9,516.1 221.6,516 		"/>
		<line class="st7" x1="232.6" y1="515.8" x2="424" y2="511.9"/>
		<polyline class="st6" points="429.4,511.8 435.1,511.7 435,506 		"/>
		<line class="st8" x1="434.8" y1="494.3" x2="428.7" y2="196.4"/>
		<polyline class="st6" points="428.6,190.6 428.5,184.9 422.8,185 		"/>
		<line class="st7" x1="411.8" y1="185.2" x2="220.4" y2="189.1"/>
		<polyline class="st6" points="215,189.3 209.3,189.4 209.4,195.1 		"/>
		<line class="st8" x1="209.6" y1="206.8" x2="215.7" y2="504.6"/>
	</g>
</g>
<linearGradient id="SVGID_2_" gradientUnits="userSpaceOnUse" x1="564.3423" y1="402.4788" x2="340.4196" y2="82.6723">
	<stop  offset="0" style="stop-color:#E6E6E6;stop-opacity:0"/>
	<stop  offset="1" style="stop-color:#E6E6E6"/>
</linearGradient>
<polygon class="st9" points="371.2,213.7 497.1,471.7 609.1,391.9 495,138.1 "/>
<g>
	<circle class="st10" cx="433.7" cy="176.3" r="72.1"/>
</g>
<g>
	<path class="st2" d="M432.7,213.1L432.7,213.1c-2.7,0-4.9-2.2-4.9-4.9v-59.7c0-2.7,2.2-4.9,4.9-4.9l0,0c2.7,0,4.9,2.2,4.9,4.9v59.7
		C437.6,210.9,435.4,213.1,432.7,213.1z"/>
</g>
<g>
	<path class="st2" d="M462.5,183.3h-59.7c-2.7,0-4.9-2.2-4.9-4.9v0c0-2.7,2.2-4.9,4.9-4.9h59.7c2.7,0,4.9,2.2,4.9,4.9v0
		C467.4,181,465.2,183.3,462.5,183.3z"/>
</g>
</svg>
