<?xml version="1.0" encoding="utf-8"?>
<!-- Generator: Adobe Illustrator 21.1.0, SVG Export Plug-In . SVG Version: 6.00 Build 0)  -->
<svg version="1.1" id="Layer_1" xmlns="http://www.w3.org/2000/svg" xmlns:xlink="http://www.w3.org/1999/xlink" x="0px" y="0px"
	 viewBox="0 0 766.4 702.3" style="enable-background:new 0 0 766.4 702.3;" xml:space="preserve">
<style type="text/css">
	.st0{fill:url(#SVGID_1_);}
	.st1{fill:#E6E6E6;}
	.st2{fill:#9D0E2E;}
	.st3{fill:#D4143F;}
	.st4{fill:#E8224E;}
	.st5{fill:#C1002B;}
	.st6{fill:#FFD25A;}
	.st7{fill:url(#SVGID_2_);}
	.st8{fill:#FFFFFF;}
	.st9{fill:url(#SVGID_3_);}
	.st10{fill:url(#SVGID_4_);}
</style>
<linearGradient id="SVGID_1_" gradientUnits="userSpaceOnUse" x1="490.0693" y1="572.7882" x2="305.5918" y2="309.3172">
	<stop  offset="0" style="stop-color:#E6E6E6;stop-opacity:0"/>
	<stop  offset="1" style="stop-color:#E6E6E6"/>
</linearGradient>
<polygon class="st0" points="296.5,539.2 363.3,690.5 564.5,463.1 431,189.7 "/>
<path class="st1" d="M565.3,100.4H397.7c-12.7,0-23.1,10.3-23.1,23.1v56.1c0,12.7,10.3,23.1,23.1,23.1h35.7
	c42.1,0,65.2,49,38.4,81.4c-16.4,19.8-40.9,31.6-74.5,35.4c4.9,0.6,9.9,0.8,14.9,0.8c69.1,0,126.5-37.2,137.2-104
	c1.3-7.9,8-13.7,16-13.7h0c12.7,0,23.1-10.3,23.1-23.1v-56.1C588.4,110.7,578,100.4,565.3,100.4z"/>
<path class="st1" d="M573.1,549.5H453c-9.1,0-16.5-7.4-16.5-16.5v-40.2c0-9.1,7.4-16.5,16.5-16.5h25.6c30.1,0,46.7-35.1,27.5-58.3
	c-11.7-14.2-29.3-22.7-53.5-25.4c3.5-0.4,7.1-0.6,10.7-0.6c49.6,0,90.7,26.6,98.3,74.5c0.9,5.7,5.7,9.8,11.5,9.8h0
	c9.1,0,16.5,7.4,16.5,16.5V533C589.6,542.1,582.2,549.5,573.1,549.5z"/>
<path class="st1" d="M148.4,163.1h120.1c9.1,0,16.5,7.4,16.5,16.5v40.2c0,9.1-7.4,16.5-16.5,16.5h-25.6c-30.1,0-46.7,35.1-27.5,58.3
	c11.7,14.2,29.3,22.7,53.5,25.4c-3.5,0.4-7.1,0.6-10.7,0.6c-49.6,0-90.7-26.6-98.3-74.5c-0.9-5.7-5.7-9.8-11.5-9.8h0
	c-9.1,0-16.5-7.4-16.5-16.5v-40.2C131.9,170.5,139.3,163.1,148.4,163.1z"/>
<path class="st2" d="M485.3,494.8L306.6,543c-6.1,1.6-12.4-2-14-8.1l-73.3-271.8c-1.6-6.1,2-12.4,8.1-14L406.1,201
	c6.1-1.6,12.4,2,14,8.1l73.3,271.8C495,486.9,491.4,493.2,485.3,494.8z"/>
<path class="st3" d="M488.6,489l-178.7,48.2c-6.1,1.6-12.4-2-14-8.1l-73.3-271.8c-1.6-6.1,2-12.4,8.1-14l178.7-48.2
	c6.1-1.6,12.4,2,14,8.1L496.6,475C498.3,481.1,494.7,487.4,488.6,489z"/>
<rect x="272.2" y="252.9" transform="matrix(0.9655 -0.2603 0.2603 0.9655 -55.6999 94.8725)" class="st4" width="116.4" height="9.8"/>
<rect x="277.3" y="271.8" transform="matrix(0.9655 -0.2603 0.2603 0.9655 -60.4579 96.8559)" class="st4" width="116.4" height="9.8"/>
<rect x="358" y="457.7" transform="matrix(-0.9655 0.2603 -0.2603 -0.9655 881.0894 815.5396)" class="st4" width="57.1" height="16.8"/>
<path class="st4" d="M394,493.7c-2,0.5-4-0.5-4.7-2.3l-7.5,2l1.6,6.1l22.7-6.1l-1.6-6.1l-7.5,2C397.2,491.3,396,493.2,394,493.7z"/>
<path class="st4" d="M379.8,486.3l1.6,6.1l7.5-2c-0.3-2,1-3.9,2.9-4.4c2-0.5,4,0.5,4.7,2.3l7.5-2l-1.6-6.1L379.8,486.3z"/>
<path class="st4" d="M395.6,488.6c-0.6-1.3-2-1.9-3.4-1.6c-1.4,0.4-2.3,1.7-2.1,3.1c0,0.2,0,0.3,0.1,0.5c0,0.2,0.1,0.3,0.2,0.5
	c0.6,1.3,2,1.9,3.4,1.6c1.4-0.4,2.3-1.7,2.1-3.1c0-0.2,0-0.3-0.1-0.5C395.7,488.9,395.7,488.8,395.6,488.6z"/>
<rect x="273.2" y="236.2" transform="matrix(0.9655 -0.2603 0.2603 0.9655 -91.5383 85.5294)" class="st5" width="8.1" height="304.3"/>
<path class="st4" d="M314.9,344.4l13,48.1c5.4,20,26,31.9,46,26.5c20-5.4,31.9-26,26.5-46l-13-48.1L314.9,344.4z"/>
<path class="st6" d="M385.4,378.1c0.2-0.4,0.4-0.7,0.5-1.1c0.3-0.6,0.4-1.3,0.3-1.9c-0.1-0.9-0.5-1.7-1.1-2.4c-1.3-1.4-3-2-4.9-1.8
	c-1,0.1-1.8,0.5-2.4,1.4c-0.1,0.2-0.4,0.5-0.5,0.7c-0.2,0.2-0.2,0.2-0.4,0.1c-0.1,0-0.1-0.1-0.2-0.1c-0.6-0.4-1.3-0.9-2-1.2
	c-0.5-0.2-0.9-0.4-1.4-0.5l0,0l-5-1.8l0.5-2.2c0.4,0.1,0.7,0.1,1.1,0.1c0.1,0,0.2,0,0.3,0c0.1,0,0.2-0.1,0.3-0.2
	c0.2-0.4,0.4-0.7,0.6-1.1c0.4-0.7,0.5-1.6,0.3-2.4c-0.2-0.8-0.5-1.5-0.8-2.2c-0.5-1-0.9-2.1-1.4-3.1c-0.1-0.3-0.3-0.6-0.4-0.9
	c-0.1-0.2-0.3-0.4-0.4-0.6c-0.2-0.3-0.5-0.3-0.8-0.3c-0.9,0.2-1.8,0.6-2.6,1l0-0.3l0,0c0-0.1,0-0.1,0-0.2c-0.1-0.1-0.1-0.1-0.2-0.1
	l-0.2-0.2l-0.3-1.2c0.2-0.1,0.5-0.2,0.7-0.3c0.1-0.1,0.2-0.2,0.2-0.4c0-0.1-0.2-0.1-0.4-0.1c-0.2,0.1-0.3,0.1-0.5,0.2
	c0,0-0.1,0-0.1,0l0-0.2l0,0c0.1,0,0.1-0.1,0.1-0.2c0-0.3,0-0.6-0.2-0.9c-0.2-0.2-0.3-0.4-0.5-0.6c-0.1-0.2-0.3-0.3-0.4-0.5
	c-0.1-0.1-0.1-0.2,0-0.3c0,0,0-0.1,0.1-0.1c0.1,0,0.1,0,0.2,0c0.4,0.1,0.8,0.3,1.1,0.6c0.2,0.3,0.5,0.6,0.7,0.9
	c0.2,0.3,0.4,0.7,0.7,1.1c0.2,0.3,0.4,0.5,0.6,0.7c0.5,0.5,1.2,0.5,1.8,0.2c0.2-0.1,0.4-0.2,0.6-0.4c0.3-0.2,0.5-0.3,0.9-0.3
	c0.2,0,0.3,0,0.5,0.1c0.5,0.5,1.1,0.8,1.7,0.9c0.1,0,0.3,0,0.4-0.1c0-0.2-0.1-0.3-0.2-0.4c-0.1-0.1-0.2-0.1-0.3-0.2
	c-0.2-0.1-0.4-0.2-0.5-0.4c-0.1-0.1-0.2-0.3-0.3-0.4c-0.3-0.3-0.7-0.4-1.1-0.3c-0.3,0.1-0.5,0.2-0.8,0.3c-0.3,0.1-0.5,0.2-0.8,0.3
	c-0.3,0.1-0.6,0.1-0.9,0c-0.6-0.2-1.2-0.6-1.7-1.1c-0.1-0.1-0.1-0.2-0.2-0.3c0.1,0,0.1,0,0.1,0c0,0,0.1,0.1,0.1,0.1
	c1,0.8,2,1.1,3.2,0.7c0.3-0.1,0.5-0.2,0.8-0.2c0.3-0.1,0.7-0.1,1,0c0.2,0.1,0.4,0.2,0.7,0.2c0.4,0.1,0.8,0.3,1.2,0.4
	c0.3,0.1,0.7,0.1,1,0c0.2-0.1,0.3-0.1,0.4-0.4c-0.1,0-0.2-0.1-0.2-0.1c-0.5-0.2-0.9-0.3-1.4-0.5c-1.1-0.3-2.2-0.4-3.3-0.1
	c-0.4,0.1-0.8,0.2-1.2,0.3c-0.6,0.1-1.2,0.1-1.7-0.3c-0.3-0.2-0.6-0.5-0.9-0.8c0.1,0,0.2,0.1,0.2,0.1c0.4,0.3,0.7,0.5,1.1,0.8
	c0.1,0.1,0.2,0.1,0.4,0.1c0.3,0,0.5,0,0.8,0c0.4,0,0.8-0.2,1.2-0.4c0.5-0.3,1.1-0.4,1.6-0.3c0.2,0,0.5,0,0.6-0.2
	c0-0.2-0.2-0.3-0.3-0.4c-0.2-0.1-0.4-0.1-0.6-0.1c-0.3,0-0.5,0-0.8-0.1c-0.2-0.1-0.4,0-0.5,0.2c-0.2,0.2-0.5,0.4-0.8,0.6
	c-0.4,0.2-0.8,0.3-1.2,0.2c-0.4-0.1-0.7-0.2-1.1-0.4c-0.3-0.2-0.5-0.4-0.8-0.6c-0.3-0.2-0.6-0.4-0.8-0.5c-0.4-0.2-0.8-0.3-1.3-0.4
	c0,0-0.1,0-0.1,0c-0.1,0-0.2,0-0.2,0c-0.2,0.1-0.3,0.2-0.4,0.4c0,0.2-0.2,0.3-0.4,0.4c-0.2,0.1-0.4,0.1-0.7,0.2l-0.5,0.4l-0.4,0.6
	c0,0-0.1,0.1-0.2,0.2c0,0-0.1,0.1-0.1,0.2l-0.5,0.6l0.2-1.3c0.1,0,0.1,0,0.2,0c0.3-0.1,0.3-0.1,0.2-0.4c-0.1-0.2-0.1-0.4-0.1-0.6
	c-0.1-0.3,0.1-0.6,0.3-0.7c0.1-0.1,0.3-0.2,0.4-0.3c0.1-0.1,0.2-0.2,0.2-0.4c0-0.2,0-0.4,0-0.6c0.1,0,0.1,0,0.2,0c0,0.1,0,0.2,0,0.3
	c0,0.2,0,0.4,0,0.6c0,0.2,0.1,0.4,0.4,0.4c0.1-0.2,0.1-0.4,0.2-0.5c0.1-0.3,0.1-0.5,0.1-0.8c0,0,0.1,0,0.1,0c0.6,0,1.3,0,1.9,0
	c1.9,0,3.8,0,5.2,0c2.3,0,4-0.1,5.7-0.1c0.6,0,1.2,0,1.8-0.1c0.2,0,0.3,0,0.5-0.1c0.1,0,0.2-0.1,0.3-0.2c0.2-0.3,0.1-0.4-0.1-0.5
	c-0.5-0.2-1-0.3-1.5-0.3c-1.2,0-2.5,0-3.7,0c-0.2,0-0.4,0-0.6,0c-1.4,0-2.9,0.1-4.3,0.1c-1.4,0-2.9,0-4.3,0c-0.1,0-0.1,0-0.2,0
	c-0.2,0-0.5,0-0.7,0c0-0.2,0-0.5,0-0.7c0-0.2-0.1-0.3-0.1-0.5c-0.1-0.2-0.2-0.2-0.3-0.2c-0.1,0-0.1,0.1-0.2,0.3
	c-0.1,0.4-0.1,0.8-0.1,1.3c-0.1,0-0.2,0-0.2,0c0,0,0,0,0-0.1c0-0.1-0.1-0.3-0.2-0.3c0,0.1-0.1,0.2-0.1,0.3c0,0,0,0,0,0
	c-0.1-0.1-0.2-0.1-0.3-0.1c0,0,0,0,0,0c0,0,0-0.1,0-0.1c-0.1-0.2-0.2-0.2-0.3-0.2c-0.1,0-0.2,0.1-0.2,0.2c0,0.1,0,0.1,0,0.2
	c0,0-0.1,0-0.1,0c0-0.1,0-0.2,0-0.4c0-0.1-0.1-0.2-0.2-0.2c-0.1,0-0.1,0.1-0.1,0.2c0,0.1-0.1,0.3-0.1,0.4c0,0-0.1,0-0.1,0
	c0-0.2,0-0.4,0-0.5c-0.2,0-0.3,0.1-0.4,0.2c0,0.1-0.1,0.2-0.1,0.4c0,0,0,0,0,0c0,0,0-0.1,0-0.1c0-0.1-0.1-0.2-0.2-0.2
	c-0.1,0.2-0.1,0.3-0.2,0.5c-0.1,0-0.3,0.1-0.4,0.1c0,0-0.1-0.1-0.1-0.1c0,0-0.1,0-0.2,0c-0.2,0.1-0.3,0.3-0.3,0.5
	c0,0.2,0.1,0.3,0.3,0.3c0.2,0.1,0.3,0.1,0.4,0c0.1,0,0.3,0,0.3,0c0,0.4,0,0.6,0.1,0.8c0.1,0.1,0.1,0.2,0.2,0.4
	c0.1,0.2,0.1,0.4,0,0.5c-0.1,0.1-0.1,0.2-0.2,0.3c-0.1,0.1-0.2,0.3-0.3,0.4c-0.1,0.1-0.2,0.3-0.1,0.5c0,0,0,0,0.1,0c0,0,0.1,0,0.1,0
	c0.1,0,0.2,0,0.2,0l-0.5,1l0,0c-0.2,0.4-0.3,0.8-0.4,1.2c0,0.1,0,0.2,0,0.2c-0.5-0.1-0.9-0.1-1.3-0.1c-0.3-0.1-0.5-0.1-0.8,0
	c-0.5,0.1-0.9,0.2-1.2,0.6c0,0-0.1,0.1-0.1,0.2c0,0,0,0,0,0l-0.6,0.3c-0.2-0.7-1-1.3-1.6-1.5c-0.1,0-0.1,0-0.2,0
	c0,0.2,0.1,0.4,0.2,0.6c0.2,0.3,0.4,0.6,0.6,0.9c0,0,0.1,0.1,0.1,0.1l-0.5-0.2c0,0,0,0-0.1,0c-0.1,0-0.1,0-0.2,0l-0.4-0.1
	c0-0.4-0.1-0.6-0.5-0.7c-0.1,0-0.2,0-0.2,0.1c0,0.1,0,0.2,0,0.3l0,0c0,0-0.2,1.5-1,2.7c0,0,0,0,0,0c-0.1,0.1-0.1,0.1-0.2,0.2
	c0,0,0,0.1-0.1,0.1c-0.2,0.2-0.4,0.4-0.6,0.6c-0.2,0.1-0.3,0.2-0.4,0.4c0,0-0.1,0.1-0.1,0.1c0,0,0,0,0,0l-1.3,1.1c0,0,0,0,0,0
	c0,0,0,0,0,0l-0.8,0.7v0c-0.5,0.3-0.8,0.8-0.7,1.3c0.1,0.4,0.3,0.7,0.6,0.9c0,0,0.1,0,0.1,0v0l1.7,0.3c0.3,0.2,0.6,0.2,0.9,0
	c1.2-0.8,0.8-0.8,2.7-0.9c0.1,0,0.1,0,0.2,0c0.3,0,0.6,0,0.9-0.1c0,0,0,0,0,0c0.3,0,0.8-0.2,1.2-0.4l-0.3,0.4
	c-0.1,0.2-0.3,0.4-0.4,0.6c-0.3,0.3-0.5,0.7-0.8,1c-0.1,0.1-0.1,0.2-0.2,0.3l-0.2,0.3c0,0,0,0,0,0c0,0-0.1,0-0.1,0
	c-0.2,0-0.3,0.2-0.2,0.4c0,0,0,0,0,0l-0.9,1.6c-0.2,0.3-0.3,0.6-0.4,1c0,0,0,0,0,0c-0.1,0.4-0.2,0.8-0.3,1.2
	c-0.1,0.3-0.1,0.6-0.2,0.8c-0.1,0-0.1,0-0.2,0c-0.1,0.1-0.2,0.2-0.3,0.3c-0.1,0.1-0.1,0.2-0.1,0.3c0,0.1,0.2,0.1,0.3,0.1
	c0,0,0,0,0,0c0.1,0,0.1,0,0.2,0c0,0.2,0,0.3-0.1,0.5c0,0,0,0,0,0c0,0,0,0,0,0.1c0,0.1,0,0.1,0,0.2c-0.3,0.9-1.7,0.6-3.1,0.3
	c-0.1-0.1-0.3-0.1-0.4-0.2c-0.4-0.2-0.8-0.3-1.3-0.4c-0.4-0.1-0.9-0.1-1.3,0.2c-0.2,0.1-0.4,0.3-0.6,0.5c0,0-0.1,0.1-0.1,0.2
	c0,0.1-0.1,0.3-0.1,0.4c0,0.1-0.1,0.3-0.1,0.5c0,0,0,0,0,0c0,0.1,0,0.2,0,0.2c0,0,0,0,0,0c0,0.2,0,0.5,0,0.7
	c-0.1,0.1-0.2,0.1-0.3,0.2c-0.7,0.6-1.4,1.2-2.3,1.6c-0.2,0.1-0.4,0.2-0.6,0.3c-0.5,0.3-0.9,0.6-1.1,1.1c-0.1,0.3-0.4,0.5-0.7,0.6
	c-0.2,0.1-0.4,0.2-0.5,0.4c-0.3,0.4-0.5,0.9-0.8,1.3c0.2,0.2,0.4,0.3,0.7,0.3c0.3,0.1,0.5,0.1,0.8,0.1c0.4,0.1,0.4,0.1,0.7-0.2
	c0.1-0.1,0.2-0.2,0.3-0.3c0-0.1,0.1-0.2,0.1-0.2c0-0.1,0-0.3-0.1-0.4c-0.3-0.2-0.3-0.2-0.1-0.5c0.2-0.4,0.3-0.4,0.8-0.2
	c0.2,0.1,0.4,0.2,0.6,0.2c0.2,0,0.4,0,0.4-0.2c0.1-0.1,0.1-0.2,0.1-0.3c0.1-0.3,0.2-0.6,0.5-0.8c0.4-0.4,0.9-0.8,1.4-1.2
	c0,0.3,0,0.6,0,0.9c0.1,0.6,0.3,1.1,0.7,1.6c0.1,0.1,0.2,0.2,0.4,0.1c0.1,0,0.1-0.1,0.2-0.1c0.1,0,0.2-0.1,0.2,0
	c0,0.1,0.1,0.2,0.1,0.2c0,0.1-0.1,0.2-0.1,0.3c0,0.1-0.1,0.3,0.1,0.4c0.3,0.2,0.6,0.4,1,0.4c0.3,0,0.3,0,0.3-0.3
	c0-0.6,0-1.1,0.1-1.7c0-0.2,0-0.3-0.2-0.3c-0.2,0-0.4,0-0.6-0.1c-0.2,0-0.4-0.1-0.6-0.2c-0.3-0.1-0.4-0.6-0.1-0.9
	c0.1,0,0.1-0.1,0.2-0.1c0.6-0.4,0.5-0.2,0.5-0.9c0-0.1,0-0.3,0-0.4c0.1,0,0.2,0,0.2,0c0.3,0.1,0.5,0.2,0.8,0.3
	c0.3,0.2,0.7,0.4,1,0.6c0.5,0.3,1,0.6,1.6,0.8c0.5,0.1,1,0.5,1.4,0.9c0.1,0.1,0.2,0.1,0.2,0.2c0.3,0.2,0.6,0.3,0.9,0.3
	c0.2,0,0.4,0,0.7,0.1c0.4,0.1,0.9,0.3,1.3,0.4c0.5,0.2,0.9,0.3,1.4,0.4c0,0,0,0,0,0l0.4,0.9c0.1,0.2,0.2,0.2,0.4,0.3
	c0,0,0.1,0,0.1,0l0.5,0.3c0,0,0,0.1,0.1,0.1c0,0,0.1,0,0.1,0c0.3,0.1,0.6,0.1,0.9,0c0.1,0,0.2-0.1,0.2-0.1l0.8,0
	c0.3,0.2,0.5,0.3,0.8,0.3c0.4,0.1,0.7,0.1,1-0.2c0.1-0.1,0.2-0.1,0.3,0c0.2,0.1,0.4,0.2,0.6,0.2c0.1,0,0.2,0,0.3,0
	c0,0,0.1-0.1,0.1-0.1c0-0.1,0-0.2,0-0.3l0.5,0c0.1,0,0.1,0,0.2,0c0.5-0.1,0.9-0.2,1.4-0.4c0.7-0.2,1.3-0.3,2-0.2
	c0.1,0,0.3-0.1,0.4-0.1l0.2,0c0.4,1.3,0.9,2.6,1.4,3.9c0.2,0.6,0.5,1.1,0.8,1.6c0.2,0.3,0.4,0.5,0.6,0.7c0.1,0.1,0.1,0.1,0.2,0.2
	c0-0.1,0-0.2,0-0.3c0-0.3,0-0.7-0.1-1c-0.1-0.7-0.3-1.3-0.5-2c-0.4-1.1-0.8-2.2-1.2-3.2l0.2,0l2.4,0.5c0,0,0.1,0,0.1,0l0.2,0.1
	c0.2,0.1,0.4,0.2,0.5,0.3c0.4,0.3,0.8,0.7,1.1,1.1c0.4,0.4,0.8,0.8,1.1,1.3c1.1,1.2,2.5,1.8,4.1,2c0.8,0.1,1.6,0.1,2.4,0.1
	c0.3,0,0.7,0,1,0c0.1,0.2,0.2,0.4,0.2,0.6c0.3,0.9,0.5,1.8,0.6,2.8c0.1,0.9,0.1,1.8,0,2.7c0,0.3-0.2,1.2-0.2,1.5l0,0
	c0,0.3-0.1,0.7-0.1,0.7c0,0.1,0,0.1,0,0.2c0,0,0,0.1,0,0.1c0,0.2,0.1,0.2,0.3,0.2c0.5,0,1-0.2,1.4-0.5c0.2-0.1,0.3-0.3,0.5-0.4
	c0,0,0.1-0.2,0-0.2c-0.1-0.2-0.3-0.4-0.5-0.6c0,0-0.1-0.1-0.1-0.1c-0.1-0.2-0.3-0.4-0.3-0.6c0.1-0.7,0.4-1.3,0.8-1.8
	c0.1-0.1,0.1-0.2,0.2-0.3c0-0.1,0-0.1,0-0.1c-0.3-0.4-0.5-1-0.6-1.5c-0.1-0.5-0.2-1.1-0.3-1.6c0-0.2-0.1-0.4-0.1-0.6
	c0.2,0.1,0.3,0.2,0.5,0.3c1,0.8,1.5,2,1.9,3.3c0.2,0.8,0.3,1.7,0.2,2.5c0,0.1-0.1,1.3-0.1,1.3h0c0,0.3,0,0.5,0,0.8
	c0.5,0.1,1.7-0.4,2.1-0.9c-0.1-0.2-0.2-0.4-0.3-0.6c0.1,0-0.5-0.6-0.5-0.6c0-0.2,0-0.3,0-0.5c0-0.2,0-0.3,0.2-0.4
	c0.1-0.1,0.2-0.2,0.4-0.3c0.2-0.2,0.2-0.3,0.1-0.6c-0.4-0.7-0.8-1.3-1.3-2c-0.8-1.2-1.4-2.5-1.8-3.8c0-0.1-0.1-0.2-0.3-0.3
	c-0.2-0.1-0.5-0.1-0.7-0.1c-0.4,0-0.7,0-1.1,0c-0.1,0-0.2,0-0.3-0.1c-0.3-0.2-0.7-0.4-1-0.7c-0.3-0.3-0.6-0.6-0.8-1l-0.2-1.8
	c0-0.1,0-0.1,0-0.1l0.1-0.3c0.1,0,0.2,0.1,0.3,0.1c0.2,0.1,0.3,0,0.3-0.2c0-0.2-0.1-0.5-0.3-0.6c0,0,0,0-0.1,0l0.1-0.3
	c0.1-0.2,0.1-0.4,0.1-0.6c0-0.6-0.1-1.2-0.2-1.7c-0.2-0.5-0.3-1-0.5-1.5c0-0.1,0-0.3,0.1-0.4c0.3-0.3,0.7-0.5,1.2-0.5
	c0.8,0,1.6,0.4,2,1.1c0.3,0.5,0.4,0.9,0.2,1.4c-0.1,0.2-0.2,0.4-0.3,0.6c-0.1,0.2-0.3,0.5-0.5,0.7c-0.1,0.2-0.2,0.5-0.2,0.8
	c0.1,0.5,0.3,1,0.7,1.4c0.2,0.1,0.9-0.7,0.7-0.2c-0.2,0.4-0.3,0.7-0.3,1.1c0,0.5,0.1,1,0.4,1.5c0.2,0.3,0.5,0.5,0.9,0.6
	c0,0,0.1,0,0.2,0c0.1,0,0.2-0.1,0.2-0.3c0,0,0,0,0-0.1c-0.1-0.2,0.4-1.4,0.9-0.9c0.3,0.3,0.7,0.4,1.2,0.3c0.1,0,0.2-0.1,0.1-0.2
	c-0.1-0.1-0.1-0.2-0.2-0.3c-0.1-0.1-0.2-0.2-0.3-0.3c-0.2-0.2-0.3-0.3-0.3-0.6c0-0.3,0.1-0.6,0.2-0.9
	C385,378.9,385.2,378.5,385.4,378.1z"/>
<linearGradient id="SVGID_2_" gradientUnits="userSpaceOnUse" x1="402.8913" y1="347.8004" x2="449.1089" y2="229.4381">
	<stop  offset="0" style="stop-color:#B0D0FE;stop-opacity:0"/>
	<stop  offset="1" style="stop-color:#B0D0FE"/>
</linearGradient>
<path class="st7" d="M557.3,109H396.7c-12.2,0-22.1,9.9-22.1,22.1v53.8c0,12.2,9.9,22.1,22.1,22.1h34.2c40.3,0,62.5,47,36.8,78
	c-15.7,19-39.2,30.3-71.4,34c4.7,0.5,9.4,0.8,14.3,0.8c66.3,0,121.2-35.6,131.5-99.6c1.2-7.6,7.7-13.1,15.3-13.1l0,0
	c12.2,0,22.1-9.9,22.1-22.1v-53.8C579.4,118.9,569.5,109,557.3,109z"/>
<path class="st8" d="M429.8,169.2h-4.6v-24h-12.3v24h-4.6v-27.9h21.5V169.2z"/>
<path class="st8" d="M447.4,169.6c-2.7,0-4.7-1-6.2-2.9h-0.3c0.2,1.8,0.3,2.9,0.3,3.2v8.7h-4.5v-30.5h3.6c0.1,0.4,0.3,1.3,0.6,2.8
	h0.2c1.4-2.1,3.5-3.2,6.3-3.2c2.6,0,4.7,1,6.2,2.9c1.5,1.9,2.2,4.6,2.2,8s-0.7,6.1-2.2,8.1C452.1,168.6,450,169.6,447.4,169.6z
	 M446.3,151.3c-1.8,0-3.1,0.5-3.9,1.6c-0.8,1-1.2,2.7-1.2,5v0.7c0,2.6,0.4,4.4,1.2,5.6c0.8,1.2,2.1,1.7,4,1.7c1.6,0,2.7-0.6,3.6-1.9
	c0.8-1.3,1.3-3.1,1.3-5.4c0-2.4-0.4-4.2-1.3-5.4C449.1,151.9,447.9,151.3,446.3,151.3z"/>
<path class="st8" d="M465.3,148.1v10.8c0,1.3-0.1,3.1-0.3,5.6l10.6-16.4h5.5v21.1h-4.3v-10.6c0-0.6,0-1.5,0.1-2.8
	c0.1-1.3,0.1-2.3,0.2-2.9l-10.6,16.3H461v-21.1H465.3z"/>
<path class="st8" d="M505.8,153.5c0,2.5-1.5,4-4.4,4.5v0.2c1.6,0.2,2.9,0.7,3.7,1.5c0.9,0.8,1.3,1.9,1.3,3.3c0,2-0.8,3.5-2.3,4.6
	c-1.5,1.1-3.7,1.6-6.6,1.6h-10.1v-21.1h10C503,148.1,505.8,149.9,505.8,153.5z M501.3,153.8c0-0.8-0.3-1.4-1-1.8
	c-0.7-0.4-1.6-0.6-2.9-0.6H492v5.1h4.8c1.5,0,2.6-0.2,3.4-0.6C500.9,155.6,501.3,154.9,501.3,153.8z M501.9,162.7
	c0-1-0.4-1.7-1.2-2.2s-2-0.6-3.6-0.6H492v6h5.3C500.3,165.8,501.9,164.8,501.9,162.7z"/>
<path class="st8" d="M520.3,169.6c-3.3,0-5.9-1-7.7-2.9c-1.9-1.9-2.8-4.6-2.8-7.9c0-3.4,0.9-6.2,2.6-8.1c1.7-2,4.1-3,7.1-3
	c2.8,0,5,0.8,6.6,2.5c1.6,1.7,2.4,4,2.4,7v2.4h-14.1c0.1,2,0.6,3.6,1.7,4.7c1,1.1,2.5,1.7,4.4,1.7c1.2,0,2.4-0.1,3.5-0.4
	s2.2-0.6,3.5-1.2v3.6c-1.1,0.5-2.2,0.9-3.3,1.1C523,169.4,521.8,169.6,520.3,169.6z M519.5,151.1c-1.4,0-2.6,0.5-3.4,1.4
	c-0.9,0.9-1.4,2.2-1.5,4h9.6c0-1.7-0.4-3.1-1.3-4C522,151.5,520.9,151.1,519.5,151.1z"/>
<path class="st8" d="M549.5,148.1v3.5h-6.9v17.6h-4.5v-17.6h-6.9v-3.5H549.5z"/>
<linearGradient id="SVGID_3_" gradientUnits="userSpaceOnUse" x1="507.178" y1="366.2012" x2="507.178" y2="464.7389">
	<stop  offset="0" style="stop-color:#B0D0FE;stop-opacity:0"/>
	<stop  offset="1" style="stop-color:#B0D0FE"/>
</linearGradient>
<path class="st9" d="M564.7,539.5H449.6c-8.8,0-15.9-7.1-15.9-15.9v-38.5c0-8.8,7.1-15.9,15.9-15.9h24.5c28.9,0,44.8-33.6,26.4-55.9
	c-11.2-13.6-28.1-21.8-51.2-24.4c3.4-0.4,6.8-0.6,10.2-0.6c47.5,0,86.9,25.5,94.2,71.4c0.9,5.4,5.5,9.4,11,9.4h0
	c8.8,0,15.9,7.1,15.9,15.9v38.5C580.6,532.4,573.5,539.5,564.7,539.5z"/>
<path class="st8" d="M484.7,515.1h-4.6v-12.6h-12.9v12.6h-4.6v-27.9h4.6v11.4h12.9v-11.4h4.6V515.1z"/>
<path class="st8" d="M500.8,515.5c-3.3,0-5.9-1-7.7-2.9c-1.9-1.9-2.8-4.6-2.8-7.9c0-3.4,0.9-6.2,2.6-8.1c1.7-2,4.1-3,7.1-3
	c2.8,0,5,0.8,6.6,2.5c1.6,1.7,2.4,4,2.4,7v2.4h-14.1c0.1,2,0.6,3.6,1.7,4.7c1,1.1,2.5,1.7,4.4,1.7c1.2,0,2.4-0.1,3.5-0.4
	s2.2-0.6,3.5-1.2v3.6c-1.1,0.5-2.2,0.9-3.3,1.1C503.5,515.4,502.2,515.5,500.8,515.5z M499.9,497c-1.4,0-2.6,0.5-3.4,1.4
	c-0.9,0.9-1.4,2.2-1.5,4h9.6c0-1.7-0.4-3.1-1.3-4C502.5,497.5,501.4,497,499.9,497z"/>
<path class="st8" d="M518.6,515.1h-4.5v-29.7h4.5V515.1z"/>
<path class="st8" d="M529.5,515.1H525v-29.7h4.5V515.1z"/>
<path class="st8" d="M554.6,504.5c0,3.5-0.9,6.1-2.7,8.1c-1.8,1.9-4.2,2.9-7.4,2.9c-2,0-3.7-0.4-5.2-1.3c-1.5-0.9-2.7-2.2-3.5-3.8
	c-0.8-1.7-1.2-3.6-1.2-5.8c0-3.4,0.9-6.1,2.6-8c1.8-1.9,4.2-2.9,7.4-2.9c3.1,0,5.5,1,7.3,3S554.6,501.2,554.6,504.5z M539.2,504.5
	c0,4.9,1.8,7.3,5.4,7.3c3.6,0,5.3-2.4,5.3-7.3c0-4.8-1.8-7.2-5.4-7.2c-1.9,0-3.2,0.6-4.1,1.9C539.7,500.4,539.2,502.2,539.2,504.5z"
	/>
<linearGradient id="SVGID_4_" gradientUnits="userSpaceOnUse" x1="262.8423" y1="385.0023" x2="223.1018" y2="233.8911">
	<stop  offset="0" style="stop-color:#B0D0FE;stop-opacity:0"/>
	<stop  offset="1" style="stop-color:#B0D0FE"/>
</linearGradient>
<path class="st10" d="M157.8,169.1h115.1c8.8,0,15.9,7.1,15.9,15.9v38.6c0,8.8-7.1,15.9-15.9,15.9h-24.5
	c-28.9,0-44.8,33.6-26.4,55.9c11.2,13.6,28.1,21.8,51.2,24.4c-3.4,0.4-6.8,0.6-10.2,0.6c-47.5,0-86.9-25.5-94.2-71.4
	c-0.9-5.4-5.5-9.4-11-9.4h0c-8.8,0-15.9-7.1-15.9-15.9V185C141.9,176.2,149,169.1,157.8,169.1z"/>
<path class="st8" d="M167.7,215.9v-25h4.1v21.5h10.6v3.5H167.7z"/>
<path class="st8" d="M198,215.9l-0.8-2.6h-0.1c-0.9,1.1-1.8,1.9-2.7,2.3c-0.9,0.4-2.1,0.6-3.6,0.6c-1.9,0-3.3-0.5-4.3-1.5
	c-1-1-1.6-2.4-1.6-4.3c0-1.9,0.7-3.4,2.2-4.4s3.6-1.5,6.6-1.6l3.3-0.1v-1c0-1.2-0.3-2.1-0.8-2.7c-0.6-0.6-1.4-0.9-2.6-0.9
	c-1,0-1.9,0.1-2.8,0.4s-1.7,0.6-2.6,1l-1.3-2.9c1-0.5,2.1-0.9,3.4-1.2c1.2-0.3,2.4-0.4,3.4-0.4c2.4,0,4.2,0.5,5.4,1.6
	c1.2,1,1.8,2.7,1.8,4.9v12.7H198z M192,213.2c1.5,0,2.6-0.4,3.5-1.2c0.9-0.8,1.3-2,1.3-3.4v-1.6l-2.4,0.1c-1.9,0.1-3.3,0.4-4.1,0.9
	s-1.3,1.4-1.3,2.6c0,0.8,0.3,1.5,0.8,2C190.3,212.9,191,213.2,192,213.2z"/>
<path class="st8" d="M216.1,196.7c2.4,0,4.2,0.9,5.5,2.6c1.3,1.7,2,4.1,2,7.2c0,3.1-0.7,5.5-2,7.2c-1.3,1.7-3.2,2.6-5.5,2.6
	c-2.4,0-4.2-0.9-5.6-2.6h-0.3l-0.7,2.2h-3v-26.6h4v6.3c0,0.5,0,1.2-0.1,2.1s-0.1,1.5-0.1,1.8h0.2
	C211.8,197.6,213.7,196.7,216.1,196.7z M215.1,199.9c-1.6,0-2.8,0.5-3.5,1.4c-0.7,1-1.1,2.5-1.1,4.8v0.3c0,2.3,0.4,4,1.1,5
	c0.7,1,1.9,1.5,3.6,1.5c1.4,0,2.5-0.6,3.2-1.7c0.7-1.1,1.1-2.8,1.1-4.9C219.5,202.1,218,199.9,215.1,199.9z"/>
<path class="st8" d="M240.1,215.9l-0.8-2.6h-0.1c-0.9,1.1-1.8,1.9-2.7,2.3c-0.9,0.4-2.1,0.6-3.6,0.6c-1.9,0-3.3-0.5-4.3-1.5
	c-1-1-1.6-2.4-1.6-4.3c0-1.9,0.7-3.4,2.2-4.4s3.6-1.5,6.6-1.6l3.3-0.1v-1c0-1.2-0.3-2.1-0.8-2.7c-0.6-0.6-1.4-0.9-2.6-0.9
	c-1,0-1.9,0.1-2.8,0.4s-1.7,0.6-2.6,1l-1.3-2.9c1-0.5,2.1-0.9,3.4-1.2c1.2-0.3,2.4-0.4,3.4-0.4c2.4,0,4.2,0.5,5.4,1.6
	c1.2,1,1.8,2.7,1.8,4.9v12.7H240.1z M234.1,213.2c1.5,0,2.6-0.4,3.5-1.2c0.9-0.8,1.3-2,1.3-3.4v-1.6l-2.4,0.1
	c-1.9,0.1-3.3,0.4-4.1,0.9s-1.3,1.4-1.3,2.6c0,0.8,0.3,1.5,0.8,2C232.4,212.9,233.1,213.2,234.1,213.2z"/>
<path class="st8" d="M261.2,210.5c0,1.8-0.7,3.3-2,4.2c-1.3,1-3.3,1.5-5.8,1.5c-2.5,0-4.5-0.4-6.1-1.1v-3.5c2.2,1,4.3,1.5,6.2,1.5
	c2.5,0,3.7-0.7,3.7-2.2c0-0.5-0.1-0.9-0.4-1.2c-0.3-0.3-0.7-0.6-1.3-1s-1.5-0.7-2.6-1.2c-2.2-0.8-3.6-1.7-4.4-2.5
	c-0.8-0.8-1.2-1.9-1.2-3.3c0-1.6,0.7-2.9,2-3.8s3.1-1.3,5.3-1.3c2.2,0,4.3,0.4,6.3,1.3l-1.3,3c-2-0.8-3.8-1.3-5.1-1.3
	c-2.1,0-3.2,0.6-3.2,1.8c0,0.6,0.3,1.1,0.8,1.5c0.6,0.4,1.8,1,3.6,1.7c1.6,0.6,2.7,1.2,3.4,1.7c0.7,0.5,1.2,1.1,1.6,1.7
	C261.1,208.8,261.2,209.6,261.2,210.5z"/>
</svg>
