<?xml version="1.0" encoding="utf-8"?>
<!-- Generator: Adobe Illustrator 21.1.0, SVG Export Plug-In . SVG Version: 6.00 Build 0)  -->
<svg version="1.1" id="Layer_1" xmlns="http://www.w3.org/2000/svg" xmlns:xlink="http://www.w3.org/1999/xlink" x="0px" y="0px"
	 viewBox="0 0 766.4 702.3" style="enable-background:new 0 0 766.4 702.3;" xml:space="preserve">
<style type="text/css">
	.st0{fill:url(#SVGID_1_);}
	.st1{fill:#B0D0FE;}
	.st2{fill:#F8F8F8;}
	.st3{fill:#114172;}
	.st4{fill:#2A46FF;}
	.st5{fill:#F2F2F2;}
	.st6{fill-rule:evenodd;clip-rule:evenodd;fill:#FFD25A;}
	.st7{fill:url(#SVGID_2_);}
	.st8{fill:#E8E8E8;}
	.st9{fill:#FFD25A;}
</style>
<linearGradient id="SVGID_1_" gradientUnits="userSpaceOnUse" x1="572.0365" y1="489.1934" x2="381.1085" y2="216.5098">
	<stop  offset="0" style="stop-color:#E6E6E6;stop-opacity:0"/>
	<stop  offset="1" style="stop-color:#E6E6E6"/>
</linearGradient>
<polygon class="st0" points="344,496.7 430.8,618 676.7,393.2 522.2,84.8 "/>
<rect x="258.5" y="153.1" transform="matrix(-0.9994 -3.585915e-02 3.585915e-02 -0.9994 762.5328 689.1349)" class="st1" width="257.8" height="369.2"/>
<g id="BILIETAS_2_">
	<g>
		<path class="st2" d="M523.8,95l-86.3,358L317,423.9l86.3-358c1.5-6.4,8-10.3,14.4-8.8L515,80.6C521.4,82.1,525.4,88.6,523.8,95z"
			/>
		<g>
			<path class="st3" d="M523.8,95l-16.4,67.8L387,133.7l16.4-67.8c1.5-6.4,8-10.3,14.4-8.8L515,80.6C521.4,82.1,525.4,88.6,523.8,95
				z"/>
			<path class="st1" d="M449.7,105.2c2.1-10.4-4.4-20.7-14.8-23.2c-10.7-2.6-21.4,4-24,14.7c-1.2,5.2-0.4,10.5,2.4,15
				c2.6,4.3,6.7,7.4,11.6,8.8c0.3,0.1,0.5,0.2,0.8,0.3c0.3,0.1,0.6,0.1,0.9,0.1c1.3,0.3,2.6,0.4,3.9,0.4c3.6,0,7.1-1,10.2-2.9
				c4.3-2.6,7.3-6.6,8.7-11.4c0.1-0.3,0.2-0.5,0.3-0.8C449.7,105.7,449.7,105.4,449.7,105.2z M422.1,107.8c1.7,0.7,3.5,1.3,5.4,1.7
				l-2.3,9.4c-1.4-0.8-2.4-2.9-2.8-5.9C422.1,111.5,422,109.7,422.1,107.8z M438.5,94.8c-1.7-0.7-3.6-1.3-5.5-1.8l2.3-9.4
				c1.4,0.8,2.5,2.9,3,5.9C438.5,91.2,438.5,93,438.5,94.8z M438.9,102.7c0.4-1.9,0.7-3.8,0.9-5.7c5.3,2.5,8.4,5.5,8.5,7.9
				L438.9,102.7z M437.5,102.3l-6.4-1.5l1.5-6.3c2.1,0.5,4,1.2,5.8,1.9C438.2,98.3,437.9,100.3,437.5,102.3z M431.5,92.7
				c-1.9-0.4-3.8-0.7-5.6-0.9c0.8-1.7,1.7-3.2,2.6-4.5c1.8-2.4,3.6-3.8,5.2-3.9L431.5,92.7z M431.2,94.1l-1.5,6.3l-6.2-1.5
				c0.5-2,1.2-3.9,1.9-5.7C427.2,93.4,429.1,93.7,431.2,94.1z M422,98.6l-9.4-2.3c1.1-1.9,4.6-3.2,9.6-3.2c0.5,0,1,0,1.5,0
				C423.1,94.9,422.5,96.7,422,98.6z M421.7,100c-0.4,1.9-0.7,3.8-0.9,5.7c-5.3-2.5-8.4-5.5-8.5-7.9L421.7,100z M423.1,100.4
				l6.2,1.5l-1.5,6.3c-2.1-0.5-3.9-1.2-5.6-1.9C422.3,104.4,422.7,102.4,423.1,100.4z M426.6,119.3l2.3-9.4c2,0.4,3.9,0.8,5.7,0.9
				C432.1,116.2,429,119.3,426.6,119.3C426.6,119.3,426.6,119.3,426.6,119.3z M429.2,108.5l1.5-6.3l6.4,1.5c-0.5,2.1-1.2,4-1.9,5.7
				C433.4,109.3,431.4,109,429.2,108.5z M438.6,104.1l9.4,2.3c-1.2,2.1-5.3,3.4-11.1,3.2C437.5,107.9,438.1,106,438.6,104.1z
				 M448.7,101.9c-1.5-2.3-4.6-4.6-8.7-6.4c0.1-2.2,0-4.2-0.3-6.1c-0.3-2-0.8-3.6-1.6-4.8C444.7,87.7,448.9,94.6,448.7,101.9z
				 M430.1,82.8c0.3,0,0.6,0,1,0c-1.2,0.8-2.4,2-3.6,3.6c-1.1,1.5-2.1,3.3-3,5.3c-4.6-0.2-8.5,0.4-10.9,1.9
				C416.4,87.1,423,82.9,430.1,82.8z M411.8,100.6c1.5,2.4,4.6,4.7,8.9,6.6c-0.1,2.2,0,4.2,0.3,6.1c0.3,1.9,0.8,3.4,1.5,4.6
				C415.7,114.8,411.6,108,411.8,100.6z M439.9,117c-3.1,1.9-6.6,2.8-10.1,2.7c2.3-1.6,4.6-4.6,6.4-8.7c0.7,0,1.4,0.1,2.1,0.1
				c3.5,0,6.5-0.6,8.5-1.8C445.3,112.4,442.9,115.1,439.9,117z"/>
		</g>
		<g>
			
				<rect x="432.9" y="186.5" transform="matrix(0.2345 -0.9721 0.9721 0.2345 164.7003 594.7347)" class="st4" width="54.2" height="12.5"/>
			
				<rect x="293" y="232.6" transform="matrix(0.2345 -0.9721 0.9721 0.2345 61.9593 550.8708)" class="st5" width="175.6" height="7.1"/>
			
				<rect x="306.7" y="235.9" transform="matrix(0.2345 -0.9721 0.9721 0.2345 69.2498 566.7507)" class="st5" width="175.6" height="7.1"/>
			
				<rect x="320.4" y="239.2" transform="matrix(0.2345 -0.9721 0.9721 0.2345 76.5403 582.6306)" class="st5" width="175.6" height="7.1"/>
			
				<rect x="342.1" y="245.3" transform="matrix(0.2345 -0.9721 0.9721 0.2345 88.061 607.7245)" class="st5" width="175.6" height="5.4"/>
			<polygon class="st1" points="491.7,172.6 466.6,276.6 466.8,222.3 479.6,169.6 			"/>
		</g>
	</g>
	<g>
		<path class="st6" d="M466.1,94.3l5.5,9.5l-2.5,5.6l-1.3-2.5c-0.4-0.7-1.2-1-1.9-0.6l-0.2,0.1c-0.7,0.4-1,1.2-0.6,1.9l1.9,3.8
			c0.1,0.3,0.3,0.4,0.6,0.6l-8.3,18.8l1.3,2.4l12.2-16.3l4.2-2.1c0,0,2.4,5.2,3.6,6.7c1.2,1.5,2.3,2.9,2.3,2.9l-5.8,11.4l1.6,3.1
			l8.8-8.2c0.5,0.6,1.9,2.1,2.6,2.2c0,0,0.1,0.1,0.1,0c0,0,0.1,0,0.1-0.1c0,0,0.1,0,0.1,0c0,0,0,0,0-0.1c0.3-0.7-0.1-2.6-0.3-3.4
			l11.8-2.5l-1.6-3.1l-12.7-1.9c0,0-0.5-1.7-1-3.5c-0.5-1.8-3.4-6.8-3.4-6.8l4.2-2.1l20.4-0.5l-1.3-2.4l-20.2-4.1
			c0-0.3,0-0.5-0.1-0.8l-1.9-3.8c-0.4-0.7-1.2-1-1.9-0.6l-0.2,0.1c-0.7,0.4-1,1.2-0.6,1.9l1.3,2.5l-6-1.2l-4.6-10
			c-0.7-1.4-5.3-5.9-6.6-5.2l0,0l0,0l0,0l0,0C464.4,86.6,465.3,92.9,466.1,94.3z"/>
	</g>
</g>
<linearGradient id="SVGID_2_" gradientUnits="userSpaceOnUse" x1="471.4362" y1="598.4202" x2="284.447" y2="331.3619">
	<stop  offset="0" style="stop-color:#E6E6E6;stop-opacity:0"/>
	<stop  offset="1" style="stop-color:#E6E6E6"/>
</linearGradient>
<polygon class="st7" points="199.1,570.7 286.9,757 622.2,479.3 467.6,170.9 "/>
<rect x="196.8" y="175.2" transform="matrix(-0.9998 2.039832e-02 -2.039832e-02 -0.9998 675.3308 736.2626)" class="st2" width="274.3" height="392.8"/>
<g id="Text_1_">
	
		<rect x="238.7" y="223.3" transform="matrix(-0.9998 2.039832e-02 -2.039832e-02 -0.9998 607.5492 448.3423)" class="st8" width="125.6" height="8"/>
	
		<rect x="239" y="239.2" transform="matrix(-0.9998 2.039832e-02 -2.039832e-02 -0.9998 608.5222 480.1297)" class="st8" width="125.6" height="8"/>
	
		<rect x="239.3" y="255.1" transform="matrix(-0.9998 2.039832e-02 -2.039832e-02 -0.9998 609.4952 511.917)" class="st8" width="125.6" height="8"/>
	
		<rect x="240" y="286.9" transform="matrix(-0.9998 2.039832e-02 -2.039832e-02 -0.9998 611.4411 575.4918)" class="st8" width="125.6" height="8"/>
	
		<rect x="240.3" y="302" transform="matrix(-0.9998 2.039832e-02 -2.039832e-02 -0.9998 694.2665 604.7737)" class="st8" width="207.5" height="8"/>
	
		<rect x="241" y="334.1" transform="matrix(-0.9998 2.039832e-02 -2.039832e-02 -0.9998 696.2313 668.9619)" class="st8" width="207.5" height="8"/>
	
		<rect x="241.3" y="350" transform="matrix(-0.9998 2.039832e-02 -2.039832e-02 -0.9998 697.2043 700.7493)" class="st8" width="207.5" height="8"/>
	
		<rect x="241.6" y="365.9" transform="matrix(-0.9998 2.039832e-02 -2.039832e-02 -0.9998 698.1773 732.5366)" class="st8" width="207.5" height="8"/>
	
		<rect x="241.9" y="381.8" transform="matrix(-0.9998 2.039832e-02 -2.039832e-02 -0.9998 699.1503 764.324)" class="st8" width="207.5" height="8"/>
	
		<rect x="240.6" y="317.9" transform="matrix(-0.9998 2.039832e-02 -2.039832e-02 -0.9998 695.2396 636.561)" class="st8" width="207.5" height="8"/>
	
		<rect x="215.4" y="445.9" transform="matrix(-0.9998 2.039832e-02 -2.039832e-02 -0.9998 675.2457 892.9383)" class="st8" width="235.3" height="8"/>
	
		<rect x="215.7" y="461.8" transform="matrix(-0.9998 2.039832e-02 -2.039832e-02 -0.9998 676.2186 924.7256)" class="st8" width="235.3" height="8"/>
	
		<rect x="300.6" y="476.9" transform="matrix(-0.9998 2.039832e-02 -2.039832e-02 -0.9998 761.6973 953.9264)" class="st8" width="150.8" height="8"/>
	
		<rect x="300.9" y="492.8" transform="matrix(-0.9998 2.039832e-02 -2.039832e-02 -0.9998 762.6702 985.7137)" class="st8" width="150.8" height="8"/>
	
		<rect x="215.1" y="429.7" transform="matrix(-0.9998 2.039832e-02 -2.039832e-02 -0.9998 674.2539 860.5375)" class="st8" width="235.3" height="8"/>
	
		<rect x="239.7" y="271" transform="matrix(-0.9998 2.039832e-02 -2.039832e-02 -0.9998 610.4681 543.7044)" class="st8" width="125.6" height="8"/>
	
		<rect x="210.9" y="225" transform="matrix(-0.9998 2.039832e-02 -2.039832e-02 -0.9998 442.6459 453.3899)" class="st1" width="16.2" height="8"/>
	
		<rect x="211.2" y="240.9" transform="matrix(-0.9998 2.039832e-02 -2.039832e-02 -0.9998 443.6189 485.1772)" class="st1" width="16.2" height="8"/>
	
		<rect x="211.5" y="256.8" transform="matrix(-0.9998 2.039832e-02 -2.039832e-02 -0.9998 444.5919 516.9646)" class="st1" width="16.2" height="8"/>
	
		<rect x="212.2" y="288.6" transform="matrix(-0.9998 2.039832e-02 -2.039832e-02 -0.9998 446.5379 580.5393)" class="st4" width="16.2" height="8"/>
	
		<rect x="211.9" y="272.7" transform="matrix(-0.9998 2.039832e-02 -2.039832e-02 -0.9998 445.5649 548.752)" class="st1" width="16.2" height="8"/>
	
		<rect x="212.5" y="304.8" transform="matrix(-0.9998 2.039832e-02 -2.039832e-02 -0.9998 447.5296 612.9401)" class="st1" width="16.2" height="8"/>
	
		<rect x="212.8" y="320.7" transform="matrix(-0.9998 2.039832e-02 -2.039832e-02 -0.9998 448.5026 644.7275)" class="st1" width="16.2" height="8"/>
	
		<rect x="213.2" y="336.6" transform="matrix(-0.9998 2.039832e-02 -2.039832e-02 -0.9998 449.4756 676.5149)" class="st1" width="16.2" height="8"/>
	
		<rect x="213.8" y="368.4" transform="matrix(-0.9998 2.039832e-02 -2.039832e-02 -0.9998 451.4216 740.0896)" class="st1" width="16.2" height="8"/>
	
		<rect x="214.1" y="384.3" transform="matrix(-0.9998 2.039832e-02 -2.039832e-02 -0.9998 452.3946 771.877)" class="st1" width="16.2" height="8"/>
	
		<rect x="213.5" y="352.5" transform="matrix(-0.9998 2.039832e-02 -2.039832e-02 -0.9998 450.4486 708.3022)" class="st4" width="16.2" height="8"/>
</g>
<rect x="375.8" y="221.1" transform="matrix(-0.9998 2.039832e-02 -2.039832e-02 -0.9998 827.7568 505.2362)" class="st9" width="71" height="71.6"/>
<path class="st4" d="M426.5,289.8c0-0.4,0-0.8,0-0.8c0,0,0-0.1,0-0.1l-1.6-2.5c0,0,0,0,0,0l-1.4-2.2c0,0,0,0,0,0l-1.8-2.9
	c0,0,0,0,0,0c0-0.1,0-0.1-0.1-0.1l-0.3-0.5c0,0,0,0,0,0l-1-1.6l0-1.6l0,0l0,0l0-1.7l0,0c0-0.1-0.1-0.1-0.2-0.1l0,0l-0.8,0
	c-1.6-2.9-2.8-5.7-3.8-9.9l0.6-2.3l0,0l0,0l0,0l0,0l0,0l0,0l0,0l0,0l0,0l0,0l0,0l0,0l0,0l0,0l0,0l0,0l0,0l0,0l0,0l0,0l0,0l0,0l0,0
	l0,0l0,0l0,0l0,0l0,0l0,0l0,0l0,0l0,0l0,0v0l0,0l0,0v0l0,0l0,0l0,0l0,0l0,0l0,0l0,0l0,0l0,0l0,0l0-0.3l0,0c0-0.1-0.1-0.1-0.2-0.1h0
	l-1.1,0c-0.1-0.6-0.2-1.2-0.3-1.9l0,0c0,0,0,0,0,0l0,0c-0.1-0.8-0.3-1.7-0.4-2.6l0,0l0,0l0,0l0,0l0,0l0,0l0,0
	c-0.1-0.8-0.2-1.6-0.3-2.4l0,0l0,0l0,0l0,0c-0.1-0.7-0.2-1.5-0.3-2.2l0,0l0,0c-0.1-0.5-0.1-1.1-0.2-1.6c0,0,0-0.1,0-0.1
	c0,0,0-0.1-0.1-0.1c-0.1-0.5-0.1-1-0.2-1.5l0,0l0,0l0,0l0,0l0,0c-0.1-0.6-0.1-1.2-0.2-1.9c0,0,0,0,0,0c-0.1-0.6-0.1-1.2-0.2-1.8l0,0
	l0,0l0,0l0,0l0,0c0-0.4-0.1-0.8-0.1-1.3c0,0,0,0,0-0.1l0,0c0,0,0,0,0,0l0,0c0-0.4-0.1-0.8-0.1-1.3v0c0,0,0,0,0,0
	c0-0.4-0.1-0.9-0.1-1.3l0,0c0,0,0,0,0,0l0,0c0-0.6-0.1-1.1-0.1-1.7v0c0,0,0,0,0,0l0,0l0,0c0-0.5-0.1-1.1-0.1-1.6l0,0l0,0
	c0,0,0,0,0,0c0-0.5-0.1-1-0.1-1.5c0,0,0,0,0-0.1c0-0.5-0.1-1-0.1-1.5v0l0,0c0,0,0,0,0,0c0-0.5-0.1-1-0.1-1.5v0c0,0,0,0,0,0
	c0-0.5-0.1-1-0.1-1.5l0,0l0,0l0,0l0,0l0,0l-0.1-1.1l0,0c0,0,0,0,0,0v0l0,0c0-0.5-0.1-1-0.1-1.5l0-0.2c0.5-0.3,0.8-0.8,0.7-1.4l0-0.5
	l0,0l0,0l0-0.1c0-0.2-0.2-0.3-0.5-0.4l0-0.9l0.5,0c0.1,0,0.1-0.1,0.1-0.2v0l0-0.7l0,0c0-0.1-0.1-0.1-0.2-0.1c-0.4,0-0.9-0.2-1.2-0.8
	c-0.3-0.5-0.5-1.3-0.5-2.4l0,0c0-0.2,0-0.3-0.1-0.4c-0.1-0.1-0.2-0.2-0.3-0.2c-0.1,0-0.2,0.1-0.3,0.2c-0.1,0.1-0.1,0.3-0.1,0.4l0,0
	c0,1.1-0.1,1.9-0.4,2.4c-0.3,0.6-0.8,0.9-1.2,0.9c-0.1,0-0.1,0.1-0.1,0.2l0,0l0,0.7c0,0.1,0.1,0.1,0.2,0.1l0,0l0.5,0l0,0.9
	c-0.3,0.1-0.5,0.3-0.5,0.4l0,0.1l0,0l0,0l0,0.5c0,0.7,0.3,1.1,0.8,1.4l0,0.2c0,0.9-0.1,1.8-0.1,2.6c0,0,0,0,0,0l0,0
	c0,1.6-0.1,3.1-0.2,4.6c0,0,0,0,0,0l0,0c-0.2,5.6-0.4,10.3-0.7,14.3c0,0,0,0,0,0.1c0,0,0,0,0,0c-0.3,4.2-0.6,7.6-1,10.4
	c0,0.2-0.1,0.4-0.1,0.5l-1.1,0l0,0c-0.1,0-0.1,0.1-0.1,0.2v0l0,0.3l0,0l0,0l0,0l0,0l0,0l0,0l0,0l0,0l0,0l0,0l0,0l0,0l0,0l0,0l0,0
	l0,0l0,0l0,0l0,0l0,0l0,0l0,0l0,0l0,0l0,0l0,0l0,0l0,0l0,0l0,0l0,0l0,0l0,0l0,0l0,0l0,0l0,0l0,0l0,0l0,0l0,0l0,0l0,0l0,0l0,0l0,0
	l0,0l0,0l0.7,2.3c-0.1,0.4-0.2,0.8-0.3,1.2c0,0,0,0,0,0c-0.7,3.1-1.5,5.4-2.6,7.7l0,0l0,0c-0.2,0.4-0.4,0.8-0.5,1.1l-0.8,0l0,0
	c-0.1,0-0.1,0.1-0.1,0.2l0,0l0,0l0,1.7l0,0l0,0l0,0l0,0v0l0,1.6l-1,1.7c0,0,0,0,0,0l-0.3,0.6c0,0,0,0,0,0l-1.8,3.1c0,0,0,0,0,0
	l-1.3,2.3c0,0,0,0,0,0l-1.5,2.5c0,0,0,0.1,0,0.1l0,0l0.1,2.9l21-0.4l9.2-0.2L426.5,289.8z M412.9,275.6L412.9,275.6l-1.2,0l0,0l0,0
	l-0.1,0l-1.1,0l0,0h0l-1.2,0l0,0h0l-1,0c0.1-0.3,0.1-0.7,0.2-1c0,0,0,0,0,0l0,0c0.2-0.9,0.3-1.7,0.5-2.6l0,0l0,0l0,0l0,0
	c0.1-0.8,0.3-1.7,0.4-2.7l0,0l0,0l0-0.1c0-0.2,0-0.3,0.1-0.5l3.1-0.1c0,0.2,0.1,0.4,0.1,0.6c0,0,0,0,0,0c0.1,1,0.3,1.8,0.5,2.7l0,0
	c0,0,0,0,0,0c0.2,0.9,0.4,1.7,0.6,2.6c0,0,0,0,0,0c0.1,0.3,0.2,0.7,0.3,1L412.9,275.6L412.9,275.6z M416.4,289.1l-13.1,0.3
	c0.1-0.2,0.1-0.5,0.2-0.7l0,0l0,0c0.5-1.7,1.6-3,2.9-3.9l0,0l0,0c0.2-0.1,0.4-0.3,0.6-0.4c0.1-0.1,0.2-0.1,0.3-0.1l0,0l0,0l0,0
	c1.2-0.6,2.7-1,4.1-1c1.1,0,2.2,0.1,3.2,0.5c0.3,0.1,0.6,0.2,0.9,0.4l0,0l0,0l0,0l0,0c0.1,0,0.2,0.1,0.3,0.1
	c0.2,0.1,0.4,0.2,0.6,0.3l0,0l0,0c1.4,0.8,2.5,2.1,3.1,3.8l0,0l0,0c0.1,0.2,0.1,0.4,0.2,0.7L416.4,289.1z"/>
<ellipse transform="matrix(0.6691 -0.7432 0.7432 0.6691 -42.8243 368.1037)" class="st2" cx="391.9" cy="232.1" rx="1.2" ry="1.2"/>
<ellipse transform="matrix(0.6691 -0.7432 0.7432 0.6691 -44.2177 399.1129)" class="st2" cx="426" cy="249.2" rx="1" ry="1"/>
<ellipse transform="matrix(0.6691 -0.7432 0.7432 0.6691 -69.6048 377.4186)" class="st2" cx="389" cy="266.9" rx="2" ry="2"/>
<ellipse transform="matrix(0.6691 -0.7432 0.7432 0.6691 -27.6814 397.1946)" class="st2" cx="432.2" cy="229.7" rx="0.6" ry="0.6"/>
<ellipse transform="matrix(0.6691 -0.7432 0.7432 0.6691 -61.3703 418.8206)" class="st2" cx="439.6" cy="278.3" rx="0.5" ry="0.5"/>
<ellipse transform="matrix(0.6691 -0.7432 0.7432 0.6691 -54.8781 381.1049)" class="st2" cx="400.5" cy="252.2" rx="0.7" ry="0.7"/>
<ellipse transform="matrix(0.6691 -0.7432 0.7432 0.6691 -51.4481 361.6483)" class="st2" cx="380.4" cy="238.6" rx="1.5" ry="1.5"/>
<ellipse transform="matrix(0.6691 -0.7432 0.7432 0.6691 -36.3497 409.4949)" class="st2" cx="441.6" cy="245.6" rx="0.7" ry="0.7"/>
<ellipse transform="matrix(0.6691 -0.7432 0.7432 0.6691 -57.8159 405.2442)" class="st2" cx="426.1" cy="267.5" rx="0.5" ry="0.5"/>
<ellipse transform="matrix(0.6691 -0.7432 0.7432 0.6691 -86.7394 379.1371)" class="st2" cx="382.4" cy="287" rx="0.7" ry="0.7"/>
</svg>
