<svg id="Layer_1" xmlns="http://www.w3.org/2000/svg" viewBox="0 0 766.4 702.3"><style>.st0{fill:#f8f8f8}.st1{fill:url(#SVGID_1_)}.st2{fill:#b0d0fe}.st3{fill:#fff}.st4{fill:url(#SVGID_2_)}.st5{fill:#ffd25a}.st6{fill:#2a46ff}.st7{fill:#d4143f}</style><path class="st0" d="M154 202h273.3v184.6H154z"/><linearGradient id="SVGID_1_" gradientUnits="userSpaceOnUse" x1="461.445" y1="514.384" x2="136.972" y2="85.311"><stop offset="0" stop-color="#e6e6e6" stop-opacity="0"/><stop offset="1" stop-color="#e6e6e6"/></linearGradient><path class="st1" d="M212.7 431.8l124.9 184.4 401.2 91.6-301.5-491z"/><path transform="rotate(-11.052 323.199 329.364)" class="st2" d="M193.7 250.5h259v157.7h-259z"/><path class="st3" d="M167.4 216.8h259v157.7h-259z"/><linearGradient id="SVGID_2_" gradientUnits="userSpaceOnUse" x1="598.355" y1="425.498" x2="378.312" y2="111.233"><stop offset="0" stop-color="#e6e6e6" stop-opacity="0"/><stop offset="1" stop-color="#e6e6e6"/></linearGradient><path class="st4" d="M396.4 248.5l145.9 237.9 112.1-79.8-134.2-233.7z"/><g id="Text_3_"><path class="st0" d="M273.4 252.1h99.5v9.7h-99.5zm0 19.3h99.5v9.7h-99.5zm0 19.3h99.5v9.7h-99.5zm0 38.7h99.5v9.7h-99.5zm0-19.3h99.5v9.7h-99.5z"/><path class="st2" d="M382.1 252.1H395v9.7h-12.9zm0 19.3H395v9.7h-12.9zm0 19.3H395v9.7h-12.9z"/><path class="st5" d="M382.1 329.4H395v9.7h-12.9z"/><path class="st2" d="M382.1 310.1H395v9.7h-12.9z"/></g><circle class="st6" cx="225.5" cy="277.3" r="12.8"/><path class="st6" d="M199.9 324.2c0-14.1 11.5-25.6 25.6-25.6 14.1 0 25.6 11.5 25.6 25.6"/><circle class="st7" cx="457.4" cy="208.7" r="72.1"/><path class="st3" d="M457.4 243.4c-2.7 0-4.9-2.2-4.9-4.9v-59.7c0-2.7 2.2-4.9 4.9-4.9s4.9 2.2 4.9 4.9v59.7c0 2.7-2.2 4.9-4.9 4.9z"/><path class="st3" d="M487.2 213.6h-59.7c-2.7 0-4.9-2.2-4.9-4.9s2.2-4.9 4.9-4.9h59.7c2.7 0 4.9 2.2 4.9 4.9.1 2.7-2.1 4.9-4.9 4.9z"/></svg>