<svg id="Layer_1" xmlns="http://www.w3.org/2000/svg" viewBox="0 0 766.4 702.3"><style>.st0{fill:url(#SVGID_1_)}.st1{fill:url(#SVGID_2_)}.st2{opacity:.63;fill:url(#SVGID_3_)}.st3{fill:#3474d5}.st4{fill:#fff}.st5{fill:#f8f8f8}.st6{fill:#b0d0fe}.st7{fill:#ffd25a}.st8{fill:#2a46ff}.st9{fill:#88afe7}</style><linearGradient id="SVGID_1_" gradientUnits="userSpaceOnUse" x1="244.976" y1="581.626" x2="-96.857" y2="71.046"><stop offset="0" stop-color="#e6e6e6" stop-opacity="0"/><stop offset="1" stop-color="#e6e6e6"/></linearGradient><path class="st0" d="M111.2 533.1l114.1 147.6 12.3-188.6-71.3-179.4z"/><linearGradient id="SVGID_2_" gradientUnits="userSpaceOnUse" x1="651.314" y1="696.058" x2="228.302" y2="177.941"><stop offset="0" stop-color="#e6e6e6" stop-opacity="0"/><stop offset="1" stop-color="#e6e6e6"/></linearGradient><path class="st1" d="M225.3 544.9l114.1 147.6 427 9.8-246-545z"/><linearGradient id="SVGID_3_" gradientUnits="userSpaceOnUse" x1="33.765" y1="145.127" x2="413.229" y2="318.361"><stop offset="0" stop-color="#0000b9"/><stop offset="1" stop-color="#00008a" stop-opacity="0"/></linearGradient><path class="st2" d="M280.4 389.5L394.5 537l112.2-360-43.3-63z"/><path transform="rotate(-6.383 344.211 329.578)" class="st3" d="M203.3 127.8h281.9v403.7H203.3z"/><path class="st4" d="M237.6 156.6h281.9v403.7H237.6z"/><g id="Text"><path class="st5" d="M344.3 205.5h129.1v8.2H344.3zm0 16.3h129.1v8.2H344.3zm0 16.3h129.1v8.2H344.3zm0 32.7h129.1v8.2H344.3zm-84.2 16.4h213.2v8.2H260.1zm0 33h213.2v8.2H260.1zm0 16.3h213.2v8.2H260.1zm0 16.4h213.2v8.2H260.1zm0 16.3h213.2v8.2H260.1zm0-65.7h213.2v8.2H260.1zm0 131.4h241.8v8.2H260.1zm0 16.3h241.8v8.2H260.1zm0 16.4H415v8.2H260.1zm0 16.3H415v8.2H260.1zm0-65.7h241.8v8.2H260.1zm84.2-163.7h129.1v8.2H344.3z"/><path class="st6" d="M485.3 205.5H502v8.2h-16.7zm0 16.3H502v8.2h-16.7zm0 16.3H502v8.2h-16.7z"/><path class="st7" d="M485.3 270.8H502v8.2h-16.7z"/><path class="st6" d="M485.3 254.5H502v8.2h-16.7zm0 33H502v8.2h-16.7zm0 16.3H502v8.2h-16.7zm0 16.4H502v8.2h-16.7zm0 32.7H502v8.2h-16.7zm0 16.3H502v8.2h-16.7z"/><path class="st7" d="M485.3 336.5H502v8.2h-16.7z"/></g><path class="st6" d="M260.1 205.5h73V279h-73z"/><circle class="st8" cx="297.1" cy="227.2" r="10.8"/><path class="st8" d="M275.5 266.8c0-12 9.7-21.6 21.6-21.6s21.6 9.7 21.6 21.6"/><path class="st6" d="M167.2 322.7l-7.5-1.6-8.5 23.6 14.4 3z"/><path class="st7" d="M164.6 313.5l-3 5.6 4.6.9-.5-6.3c-.2-.6-.9-.8-1.1-.2z"/><path transform="rotate(-78.387 130.996 479.564)" class="st9" d="M129.4 471.1h3.2V488h-3.2z"/><path transform="rotate(-78.387 144.637 413.179)" class="st6" d="M78.5 403.7h132.4v18.9H78.5z"/><path transform="rotate(-78.387 125.56 506.011)" class="st6" d="M100.1 496.5h50.8v18.9h-50.8z"/><path transform="rotate(-78.387 122.616 533.362)" class="st9" d="M120.6 523h4v20.6h-4z"/><path class="st9" d="M145.2 474.5l-12.9 62.9-2-.5 11.7-56.7z"/><path transform="rotate(-78.387 158.182 347.269)" class="st9" d="M157.1 338.6h2.2v17.3h-2.2z"/><path transform="rotate(-78.387 163.628 320.76)" class="st9" d="M162.4 317.9h2.4v5.7h-2.4z"/></svg>