<svg id="Layer_1" xmlns="http://www.w3.org/2000/svg" viewBox="0 0 766.4 702.3"><style>.st0{fill:url(#SVGID_1_)}.st1{fill:#e6e6e6}.st2{fill:#9d0e2e}.st3{fill:#d4143f}.st4{fill:#e8224e}.st5{fill:#c1002b}.st6{fill:#ffd25a}.st7{fill:url(#SVGID_2_)}.st8{fill:#fff}.st9{fill:url(#SVGID_3_)}.st10{fill:url(#SVGID_4_)}</style><linearGradient id="SVGID_1_" gradientUnits="userSpaceOnUse" x1="490.069" y1="572.788" x2="305.592" y2="309.317"><stop offset="0" stop-color="#e6e6e6" stop-opacity="0"/><stop offset="1" stop-color="#e6e6e6"/></linearGradient><path class="st0" d="M296.5 539.2l66.8 151.3 201.2-227.4L431 189.7z"/><path class="st1" d="M565.3 100.4H397.7c-12.7 0-23.1 10.3-23.1 23.1v56.1c0 12.7 10.3 23.1 23.1 23.1h35.7c42.1 0 65.2 49 38.4 81.4-16.4 19.8-40.9 31.6-74.5 35.4 4.9.6 9.9.8 14.9.8 69.1 0 126.5-37.2 137.2-104 1.3-7.9 8-13.7 16-13.7 12.7 0 23.1-10.3 23.1-23.1v-56.1c-.1-12.7-10.5-23-23.2-23zm7.8 449.1H453c-9.1 0-16.5-7.4-16.5-16.5v-40.2c0-9.1 7.4-16.5 16.5-16.5h25.6c30.1 0 46.7-35.1 27.5-58.3-11.7-14.2-29.3-22.7-53.5-25.4 3.5-.4 7.1-.6 10.7-.6 49.6 0 90.7 26.6 98.3 74.5.9 5.7 5.7 9.8 11.5 9.8 9.1 0 16.5 7.4 16.5 16.5V533c0 9.1-7.4 16.5-16.5 16.5zM148.4 163.1h120.1c9.1 0 16.5 7.4 16.5 16.5v40.2c0 9.1-7.4 16.5-16.5 16.5h-25.6c-30.1 0-46.7 35.1-27.5 58.3 11.7 14.2 29.3 22.7 53.5 25.4-3.5.4-7.1.6-10.7.6-49.6 0-90.7-26.6-98.3-74.5-.9-5.7-5.7-9.8-11.5-9.8-9.1 0-16.5-7.4-16.5-16.5v-40.2c0-9.1 7.4-16.5 16.5-16.5z"/><path class="st2" d="M485.3 494.8L306.6 543c-6.1 1.6-12.4-2-14-8.1l-73.3-271.8c-1.6-6.1 2-12.4 8.1-14L406.1 201c6.1-1.6 12.4 2 14 8.1l73.3 271.8c1.6 6-2 12.3-8.1 13.9z"/><path class="st3" d="M488.6 489l-178.7 48.2c-6.1 1.6-12.4-2-14-8.1l-73.3-271.8c-1.6-6.1 2-12.4 8.1-14l178.7-48.2c6.1-1.6 12.4 2 14 8.1L496.6 475c1.7 6.1-1.9 12.4-8 14z"/><path transform="rotate(-15.088 330.34 257.733)" class="st4" d="M272.2 252.9h116.4v9.8H272.2z"/><path transform="rotate(-15.088 335.45 276.688)" class="st4" d="M277.3 271.8h116.4v9.8H277.3z"/><path transform="rotate(164.912 386.544 466.118)" class="st4" d="M358 457.7h57.1v16.8H358z"/><path class="st4" d="M394 493.7c-2 .5-4-.5-4.7-2.3l-7.5 2 1.6 6.1 22.7-6.1-1.6-6.1-7.5 2c.2 2-1 3.9-3 4.4zm-14.2-7.4l1.6 6.1 7.5-2c-.3-2 1-3.9 2.9-4.4 2-.5 4 .5 4.7 2.3l7.5-2-1.6-6.1-22.6 6.1z"/><path class="st4" d="M395.6 488.6c-.6-1.3-2-1.9-3.4-1.6-1.4.4-2.3 1.7-2.1 3.1 0 .2 0 .3.1.5 0 .2.1.3.2.5.6 1.3 2 1.9 3.4 1.6 1.4-.4 2.3-1.7 2.1-3.1 0-.2 0-.3-.1-.5s-.1-.3-.2-.5z"/><path transform="rotate(-15.088 277.146 388.369)" class="st5" d="M273.2 236.2h8.1v304.3h-8.1z"/><path class="st4" d="M314.9 344.4l13 48.1c5.4 20 26 31.9 46 26.5 20-5.4 31.9-26 26.5-46l-13-48.1-72.5 19.5z"/><path class="st6" d="M385.4 378.1c.2-.4.4-.7.5-1.1.3-.6.4-1.3.3-1.9-.1-.9-.5-1.7-1.1-2.4-1.3-1.4-3-2-4.9-1.8-1 .1-1.8.5-2.4 1.4-.1.2-.4.5-.5.7-.2.2-.2.2-.4.1-.1 0-.1-.1-.2-.1-.6-.4-1.3-.9-2-1.2-.5-.2-.9-.4-1.4-.5l-5-1.8.5-2.2c.4.1.7.1 1.1.1h.3c.1 0 .2-.1.3-.2.2-.4.4-.7.6-1.1.4-.7.5-1.6.3-2.4-.2-.8-.5-1.5-.8-2.2-.5-1-.9-2.1-1.4-3.1-.1-.3-.3-.6-.4-.9-.1-.2-.3-.4-.4-.6-.2-.3-.5-.3-.8-.3-.9.2-1.8.6-2.6 1v-.5c-.1-.1-.1-.1-.2-.1l-.2-.2-.3-1.2c.2-.1.5-.2.7-.3.1-.1.2-.2.2-.4 0-.1-.2-.1-.4-.1-.2.1-.3.1-.5.2h-.1v-.2c.1 0 .1-.1.1-.2 0-.3 0-.6-.2-.9-.2-.2-.3-.4-.5-.6-.1-.2-.3-.3-.4-.5-.1-.1-.1-.2 0-.3 0 0 0-.1.1-.1h.2c.4.1.8.3 1.1.6.2.3.5.6.7.9.2.3.4.7.7 1.1.2.3.4.5.6.7.5.5 1.2.5 1.8.2.2-.1.4-.2.6-.4.3-.2.5-.3.9-.3.2 0 .3 0 .5.1.5.5 1.1.8 1.7.9.1 0 .3 0 .4-.1 0-.2-.1-.3-.2-.4-.1-.1-.2-.1-.3-.2-.2-.1-.4-.2-.5-.4-.1-.1-.2-.3-.3-.4-.3-.3-.7-.4-1.1-.3-.3.1-.5.2-.8.3-.3.1-.5.2-.8.3-.3.1-.6.1-.9 0-.6-.2-1.2-.6-1.7-1.1-.1-.1-.1-.2-.2-.3h.1l.1.1c1 .8 2 1.1 3.2.7.3-.1.5-.2.8-.2.3-.1.7-.1 1 0 .2.1.4.2.7.2.4.1.8.3 1.2.4.3.1.7.1 1 0 .2-.1.3-.1.4-.4-.1 0-.2-.1-.2-.1-.5-.2-.9-.3-1.4-.5-1.1-.3-2.2-.4-3.3-.1l-1.2.3c-.6.1-1.2.1-1.7-.3-.3-.2-.6-.5-.9-.8.1 0 .2.1.2.1.4.3.7.5 1.1.8.1.1.2.1.4.1h.8c.4 0 .8-.2 1.2-.4.5-.3 1.1-.4 1.6-.3.2 0 .5 0 .6-.2 0-.2-.2-.3-.3-.4-.2-.1-.4-.1-.6-.1-.3 0-.5 0-.8-.1-.2-.1-.4 0-.5.2-.2.2-.5.4-.8.6-.4.2-.8.3-1.2.2-.4-.1-.7-.2-1.1-.4-.3-.2-.5-.4-.8-.6-.3-.2-.6-.4-.8-.5-.4-.2-.8-.3-1.3-.4h-.3c-.2.1-.3.2-.4.4 0 .2-.2.3-.4.4-.2.1-.4.1-.7.2l-.5.4-.4.6-.2.2s-.1.1-.1.2l-.5.6.2-1.3h.2c.3-.1.3-.1.2-.4-.1-.2-.1-.4-.1-.6-.1-.3.1-.6.3-.7.1-.1.3-.2.4-.3.1-.1.2-.2.2-.4v-.6h.2v.9c0 .2.1.4.4.4.1-.2.1-.4.2-.5.1-.3.1-.5.1-.8h7.2c2.3 0 4-.1 5.7-.1.6 0 1.2 0 1.8-.1.2 0 .3 0 .5-.1.1 0 .2-.1.3-.2.2-.3.1-.4-.1-.5-.5-.2-1-.3-1.5-.3h-4.3c-1.4 0-2.9.1-4.3.1h-5.2v-.7c0-.2-.1-.3-.1-.5-.1-.2-.2-.2-.3-.2-.1 0-.1.1-.2.3-.1.4-.1.8-.1 1.3h-.2v-.1c0-.1-.1-.3-.2-.3 0 .1-.1.2-.1.3-.1-.1-.2-.1-.3-.1v-.1c-.1-.2-.2-.2-.3-.2-.1 0-.2.1-.2.2v.2h-.1v-.4c0-.1-.1-.2-.2-.2s-.1.1-.1.2-.1.3-.1.4h-.1v-.5c-.2 0-.3.1-.4.2 0 .1-.1.2-.1.4v-.1c0-.1-.1-.2-.2-.2-.1.2-.1.3-.2.5-.1 0-.3.1-.4.1l-.1-.1h-.2c-.2.1-.3.3-.3.5s.1.3.3.3c.2.1.3.1.4 0h.3c0 .4 0 .6.1.8.1.1.1.2.2.4s.1.4 0 .5c-.1.1-.1.2-.2.3-.1.1-.2.3-.3.4-.1.1-.2.3-.1.5h.4l-.5 1c-.2.4-.3.8-.4 1.2v.2c-.5-.1-.9-.1-1.3-.1-.3-.1-.5-.1-.8 0-.5.1-.9.2-1.2.6 0 0-.1.1-.1.2l-.6.3c-.2-.7-1-1.3-1.6-1.5h-.2c0 .2.1.4.2.6l.6.9.1.1-.5-.2h-.3l-.4-.1c0-.4-.1-.6-.5-.7-.1 0-.2 0-.2.1v.3s-.2 1.5-1 2.7l-.2.2s0 .1-.1.1l-.6.6c-.2.1-.3.2-.4.4l-.1.1-1.3 1.1-.8.7c-.5.3-.8.8-.7 1.3.1.4.3.7.6.9h.1l1.7.3c.3.2.6.2.9 0 1.2-.8.8-.8 2.7-.9h.2c.3 0 .6 0 .9-.1.3 0 .8-.2 1.2-.4l-.3.4c-.1.2-.3.4-.4.6-.3.3-.5.7-.8 1-.1.1-.1.2-.2.3l-.2.3h-.1c-.2 0-.3.2-.2.4l-.9 1.6c-.2.3-.3.6-.4 1l-.3 1.2c-.1.3-.1.6-.2.8h-.2l-.3.3c-.1.1-.1.2-.1.3 0 .1.2.1.3.1h.2c0 .2 0 .3-.1.5v.3c-.3.9-1.7.6-3.1.3-.1-.1-.3-.1-.4-.2-.4-.2-.8-.3-1.3-.4-.4-.1-.9-.1-1.3.2-.2.1-.4.3-.6.5 0 0-.1.1-.1.2s-.1.3-.1.4c0 .1-.1.3-.1.5v.9c-.1.1-.2.1-.3.2-.7.6-1.4 1.2-2.3 1.6l-.6.3c-.5.3-.9.6-1.1 1.1-.1.3-.4.5-.7.6-.2.1-.4.2-.5.4-.3.4-.5.9-.8 1.3.2.2.4.3.7.3.3.1.5.1.8.1.4.1.4.1.7-.2l.3-.3c0-.1.1-.2.1-.2 0-.1 0-.3-.1-.4-.3-.2-.3-.2-.1-.5.2-.4.3-.4.8-.2.2.1.4.2.6.2.2 0 .4 0 .4-.2.1-.1.1-.2.1-.3.1-.3.2-.6.5-.8.4-.4.9-.8 1.4-1.2v.9c.1.6.3 1.1.7 1.6.1.1.2.2.4.1.1 0 .1-.1.2-.1s.2-.1.2 0 .1.2.1.2c0 .1-.1.2-.1.3 0 .1-.1.3.1.4.3.2.6.4 1 .4.3 0 .3 0 .3-.3 0-.6 0-1.1.1-1.7 0-.2 0-.3-.2-.3s-.4 0-.6-.1c-.2 0-.4-.1-.6-.2-.3-.1-.4-.6-.1-.9.1 0 .1-.1.2-.1.6-.4.5-.2.5-.9v-.4h.2c.3.1.5.2.8.3.3.2.7.4 1 .6.5.3 1 .6 1.6.8.5.1 1 .5 1.4.9.1.1.2.1.2.2.3.2.6.3.9.3.2 0 .4 0 .7.1.4.1.9.3 1.3.4.5.2.9.3 1.4.4l.4.9c.1.2.2.2.4.3h.1l.5.3s0 .1.1.1h.1c.3.1.6.1.9 0 .1 0 .2-.1.2-.1h.8c.3.2.5.3.8.3.4.1.7.1 1-.2.1-.1.2-.1.3 0 .2.1.4.2.6.2h.3l.1-.1v-.3h.7c.5-.1.9-.2 1.4-.4.7-.2 1.3-.3 2-.2.1 0 .3-.1.4-.1h.2c.4 1.3.9 2.6 1.4 3.9.2.6.5 1.1.8 1.6.2.3.4.5.6.7l.2.2v-.3c0-.3 0-.7-.1-1-.1-.7-.3-1.3-.5-2-.4-1.1-.8-2.2-1.2-3.2h.2l2.4.5h.1l.2.1c.2.1.4.2.5.3.4.3.8.7 1.1 1.1.4.4.8.8 1.1 1.3 1.1 1.2 2.5 1.8 4.1 2 .8.1 1.6.1 2.4.1h1c.1.2.2.4.2.6.3.9.5 1.8.6 2.8.1.9.1 1.8 0 2.7 0 .3-.2 1.2-.2 1.5 0 .3-.1.7-.1.7v.3c0 .2.1.2.3.2.5 0 1-.2 1.4-.5.2-.1.3-.3.5-.4 0 0 .1-.2 0-.2-.1-.2-.3-.4-.5-.6l-.1-.1c-.1-.2-.3-.4-.3-.6.1-.7.4-1.3.8-1.8.1-.1.1-.2.2-.3v-.1c-.3-.4-.5-1-.6-1.5-.1-.5-.2-1.1-.3-1.6 0-.2-.1-.4-.1-.6.2.1.3.2.5.3 1 .8 1.5 2 1.9 3.3.2.8.3 1.7.2 2.5 0 .1-.1 1.3-.1 1.3v.8c.5.1 1.7-.4 2.1-.9l-.3-.6c.1 0-.5-.6-.5-.6v-.5c0-.2 0-.3.2-.4.1-.1.2-.2.4-.3.2-.2.2-.3.1-.6-.4-.7-.8-1.3-1.3-2-.8-1.2-1.4-2.5-1.8-3.8 0-.1-.1-.2-.3-.3-.2-.1-.5-.1-.7-.1h-1.1c-.1 0-.2 0-.3-.1-.3-.2-.7-.4-1-.7-.3-.3-.6-.6-.8-1l-.2-1.8v-.1l.1-.3c.1 0 .2.1.3.1.2.1.3 0 .3-.2s-.1-.5-.3-.6h-.1l.1-.3c.1-.2.1-.4.1-.6 0-.6-.1-1.2-.2-1.7-.2-.5-.3-1-.5-1.5 0-.1 0-.3.1-.4.3-.3.7-.5 1.2-.5.8 0 1.6.4 2 1.1.3.5.4.9.2 1.4l-.3.6c-.1.2-.3.5-.5.7-.1.2-.2.5-.2.8.1.5.3 1 .7 1.4.2.1.9-.7.7-.2-.2.4-.3.7-.3 1.1 0 .5.1 1 .4 1.5.2.3.5.5.9.6h.2c.1 0 .2-.1.2-.3v-.1c-.1-.2.4-1.4.9-.9.3.3.7.4 1.2.3.1 0 .2-.1.1-.2s-.1-.2-.2-.3l-.3-.3c-.2-.2-.3-.3-.3-.6s.1-.6.2-.9c-.6-.7-.4-1.1-.2-1.5z"/><linearGradient id="SVGID_2_" gradientUnits="userSpaceOnUse" x1="402.891" y1="347.8" x2="449.109" y2="229.438"><stop offset="0" stop-color="#b0d0fe" stop-opacity="0"/><stop offset="1" stop-color="#b0d0fe"/></linearGradient><path class="st7" d="M557.3 109H396.7c-12.2 0-22.1 9.9-22.1 22.1v53.8c0 12.2 9.9 22.1 22.1 22.1h34.2c40.3 0 62.5 47 36.8 78-15.7 19-39.2 30.3-71.4 34 4.7.5 9.4.8 14.3.8 66.3 0 121.2-35.6 131.5-99.6 1.2-7.6 7.7-13.1 15.3-13.1 12.2 0 22.1-9.9 22.1-22.1v-53.8c-.1-12.3-10-22.2-22.2-22.2z"/><path class="st8" d="M429.8 169.2h-4.6v-24h-12.3v24h-4.6v-27.9h21.5v27.9zm17.6.4c-2.7 0-4.7-1-6.2-2.9h-.3c.2 1.8.3 2.9.3 3.2v8.7h-4.5v-30.5h3.6c.1.4.3 1.3.6 2.8h.2c1.4-2.1 3.5-3.2 6.3-3.2 2.6 0 4.7 1 6.2 2.9s2.2 4.6 2.2 8-.7 6.1-2.2 8.1c-1.5 1.9-3.6 2.9-6.2 2.9zm-1.1-18.3c-1.8 0-3.1.5-3.9 1.6-.8 1-1.2 2.7-1.2 5v.7c0 2.6.4 4.4 1.2 5.6.8 1.2 2.1 1.7 4 1.7 1.6 0 2.7-.6 3.6-1.9.8-1.3 1.3-3.1 1.3-5.4 0-2.4-.4-4.2-1.3-5.4-.9-1.3-2.1-1.9-3.7-1.9zm19-3.2v10.8c0 1.3-.1 3.1-.3 5.6l10.6-16.4h5.5v21.1h-4.3v-10.6c0-.6 0-1.5.1-2.8.1-1.3.1-2.3.2-2.9l-10.6 16.3H461v-21.1h4.3zm40.5 5.4c0 2.5-1.5 4-4.4 4.5v.2c1.6.2 2.9.7 3.7 1.5.9.8 1.3 1.9 1.3 3.3 0 2-.8 3.5-2.3 4.6-1.5 1.1-3.7 1.6-6.6 1.6h-10.1v-21.1h10c5.6 0 8.4 1.8 8.4 5.4zm-4.5.3c0-.8-.3-1.4-1-1.8-.7-.4-1.6-.6-2.9-.6H492v5.1h4.8c1.5 0 2.6-.2 3.4-.6.7-.3 1.1-1 1.1-2.1zm.6 8.9c0-1-.4-1.7-1.2-2.2s-2-.6-3.6-.6H492v6h5.3c3-.1 4.6-1.1 4.6-3.2zm18.4 6.9c-3.3 0-5.9-1-7.7-2.9-1.9-1.9-2.8-4.6-2.8-7.9 0-3.4.9-6.2 2.6-8.1 1.7-2 4.1-3 7.1-3 2.8 0 5 .8 6.6 2.5 1.6 1.7 2.4 4 2.4 7v2.4h-14.1c.1 2 .6 3.6 1.7 4.7 1 1.1 2.5 1.7 4.4 1.7 1.2 0 2.4-.1 3.5-.4s2.2-.6 3.5-1.2v3.6c-1.1.5-2.2.9-3.3 1.1-1.2.3-2.4.5-3.9.5zm-.8-18.5c-1.4 0-2.6.5-3.4 1.4-.9.9-1.4 2.2-1.5 4h9.6c0-1.7-.4-3.1-1.3-4-.9-1-2-1.4-3.4-1.4zm30-3v3.5h-6.9v17.6h-4.5v-17.6h-6.9v-3.5h18.3z"/><linearGradient id="SVGID_3_" gradientUnits="userSpaceOnUse" x1="507.178" y1="366.201" x2="507.178" y2="464.739"><stop offset="0" stop-color="#b0d0fe" stop-opacity="0"/><stop offset="1" stop-color="#b0d0fe"/></linearGradient><path class="st9" d="M564.7 539.5H449.6c-8.8 0-15.9-7.1-15.9-15.9v-38.5c0-8.8 7.1-15.9 15.9-15.9h24.5c28.9 0 44.8-33.6 26.4-55.9-11.2-13.6-28.1-21.8-51.2-24.4 3.4-.4 6.8-.6 10.2-.6 47.5 0 86.9 25.5 94.2 71.4.9 5.4 5.5 9.4 11 9.4 8.8 0 15.9 7.1 15.9 15.9v38.5c0 8.9-7.1 16-15.9 16z"/><path class="st8" d="M484.7 515.1h-4.6v-12.6h-12.9v12.6h-4.6v-27.9h4.6v11.4h12.9v-11.4h4.6v27.9zm16.1.4c-3.3 0-5.9-1-7.7-2.9-1.9-1.9-2.8-4.6-2.8-7.9 0-3.4.9-6.2 2.6-8.1 1.7-2 4.1-3 7.1-3 2.8 0 5 .8 6.6 2.5 1.6 1.7 2.4 4 2.4 7v2.4h-14.1c.1 2 .6 3.6 1.7 4.7 1 1.1 2.5 1.7 4.4 1.7 1.2 0 2.4-.1 3.5-.4s2.2-.6 3.5-1.2v3.6c-1.1.5-2.2.9-3.3 1.1-1.2.4-2.5.5-3.9.5zm-.9-18.5c-1.4 0-2.6.5-3.4 1.4-.9.9-1.4 2.2-1.5 4h9.6c0-1.7-.4-3.1-1.3-4-.8-.9-1.9-1.4-3.4-1.4zm18.7 18.1h-4.5v-29.7h4.5v29.7zm10.9 0H525v-29.7h4.5v29.7zm25.1-10.6c0 3.5-.9 6.1-2.7 8.1-1.8 1.9-4.2 2.9-7.4 2.9-2 0-3.7-.4-5.2-1.3s-2.7-2.2-3.5-3.8c-.8-1.7-1.2-3.6-1.2-5.8 0-3.4.9-6.1 2.6-8 1.8-1.9 4.2-2.9 7.4-2.9 3.1 0 5.5 1 7.3 3s2.7 4.5 2.7 7.8zm-15.4 0c0 4.9 1.8 7.3 5.4 7.3 3.6 0 5.3-2.4 5.3-7.3 0-4.8-1.8-7.2-5.4-7.2-1.9 0-3.2.6-4.1 1.9-.7 1.2-1.2 3-1.2 5.3z"/><linearGradient id="SVGID_4_" gradientUnits="userSpaceOnUse" x1="262.842" y1="385.002" x2="223.102" y2="233.891"><stop offset="0" stop-color="#b0d0fe" stop-opacity="0"/><stop offset="1" stop-color="#b0d0fe"/></linearGradient><path class="st10" d="M157.8 169.1h115.1c8.8 0 15.9 7.1 15.9 15.9v38.6c0 8.8-7.1 15.9-15.9 15.9h-24.5c-28.9 0-44.8 33.6-26.4 55.9 11.2 13.6 28.1 21.8 51.2 24.4-3.4.4-6.8.6-10.2.6-47.5 0-86.9-25.5-94.2-71.4-.9-5.4-5.5-9.4-11-9.4-8.8 0-15.9-7.1-15.9-15.9V185c0-8.8 7.1-15.9 15.9-15.9z"/><path class="st8" d="M167.7 215.9v-25h4.1v21.5h10.6v3.5h-14.7zm30.3 0l-.8-2.6h-.1c-.9 1.1-1.8 1.9-2.7 2.3-.9.4-2.1.6-3.6.6-1.9 0-3.3-.5-4.3-1.5s-1.6-2.4-1.6-4.3.7-3.4 2.2-4.4 3.6-1.5 6.6-1.6l3.3-.1v-1c0-1.2-.3-2.1-.8-2.7-.6-.6-1.4-.9-2.6-.9-1 0-1.9.1-2.8.4s-1.7.6-2.6 1l-1.3-2.9c1-.5 2.1-.9 3.4-1.2 1.2-.3 2.4-.4 3.4-.4 2.4 0 4.2.5 5.4 1.6 1.2 1 1.8 2.7 1.8 4.9v12.7H198zm-6-2.7c1.5 0 2.6-.4 3.5-1.2.9-.8 1.3-2 1.3-3.4V207l-2.4.1c-1.9.1-3.3.4-4.1.9s-1.3 1.4-1.3 2.6c0 .8.3 1.5.8 2 .5.3 1.2.6 2.2.6zm24.1-16.5c2.4 0 4.2.9 5.5 2.6 1.3 1.7 2 4.1 2 7.2 0 3.1-.7 5.5-2 7.2-1.3 1.7-3.2 2.6-5.5 2.6-2.4 0-4.2-.9-5.6-2.6h-.3l-.7 2.2h-3v-26.6h4v6.3c0 .5 0 1.2-.1 2.1s-.1 1.5-.1 1.8h.2c1.3-1.9 3.2-2.8 5.6-2.8zm-1 3.2c-1.6 0-2.8.5-3.5 1.4-.7 1-1.1 2.5-1.1 4.8v.3c0 2.3.4 4 1.1 5 .7 1 1.9 1.5 3.6 1.5 1.4 0 2.5-.6 3.2-1.7.7-1.1 1.1-2.8 1.1-4.9 0-4.2-1.5-6.4-4.4-6.4zm25 16l-.8-2.6h-.1c-.9 1.1-1.8 1.9-2.7 2.3-.9.4-2.1.6-3.6.6-1.9 0-3.3-.5-4.3-1.5s-1.6-2.4-1.6-4.3.7-3.4 2.2-4.4 3.6-1.5 6.6-1.6l3.3-.1v-1c0-1.2-.3-2.1-.8-2.7-.6-.6-1.4-.9-2.6-.9-1 0-1.9.1-2.8.4s-1.7.6-2.6 1l-1.3-2.9c1-.5 2.1-.9 3.4-1.2 1.2-.3 2.4-.4 3.4-.4 2.4 0 4.2.5 5.4 1.6 1.2 1 1.8 2.7 1.8 4.9v12.7h-2.9zm-6-2.7c1.5 0 2.6-.4 3.5-1.2.9-.8 1.3-2 1.3-3.4V207l-2.4.1c-1.9.1-3.3.4-4.1.9s-1.3 1.4-1.3 2.6c0 .8.3 1.5.8 2 .5.3 1.2.6 2.2.6zm27.1-2.7c0 1.8-.7 3.3-2 4.2-1.3 1-3.3 1.5-5.8 1.5s-4.5-.4-6.1-1.1v-3.5c2.2 1 4.3 1.5 6.2 1.5 2.5 0 3.7-.7 3.7-2.2 0-.5-.1-.9-.4-1.2-.3-.3-.7-.6-1.3-1s-1.5-.7-2.6-1.2c-2.2-.8-3.6-1.7-4.4-2.5-.8-.8-1.2-1.9-1.2-3.3 0-1.6.7-2.9 2-3.8s3.1-1.3 5.3-1.3c2.2 0 4.3.4 6.3 1.3l-1.3 3c-2-.8-3.8-1.3-5.1-1.3-2.1 0-3.2.6-3.2 1.8 0 .6.3 1.1.8 1.5.6.4 1.8 1 3.6 1.7 1.6.6 2.7 1.2 3.4 1.7.7.5 1.2 1.1 1.6 1.7.4.8.5 1.6.5 2.5z"/></svg>