<svg id="Layer_1" xmlns="http://www.w3.org/2000/svg" viewBox="0 0 766.4 702.3"><style>.st0{fill:url(#SVGID_1_)}.st1{fill:#b0d0fe}.st2{fill:#f8f8f8}.st3{fill:#114172}.st4{fill:#2a46ff}.st5{fill:#f2f2f2}.st6{fill-rule:evenodd;clip-rule:evenodd;fill:#ffd25a}.st7{fill:url(#SVGID_2_)}.st8{fill:#e8e8e8}.st9{fill:#ffd25a}</style><linearGradient id="SVGID_1_" gradientUnits="userSpaceOnUse" x1="572.037" y1="489.193" x2="381.108" y2="216.51"><stop offset="0" stop-color="#e6e6e6" stop-opacity="0"/><stop offset="1" stop-color="#e6e6e6"/></linearGradient><path class="st0" d="M344 496.7L430.8 618l245.9-224.8L522.2 84.8z"/><path transform="matrix(-.9994 -.03586 .03586 -.9994 762.533 689.135)" class="st1" d="M258.5 153.1h257.8v369.2H258.5z"/><g id="BILIETAS_2_"><path class="st2" d="M523.8 95l-86.3 358L317 423.9l86.3-358c1.5-6.4 8-10.3 14.4-8.8L515 80.6c6.4 1.5 10.4 8 8.8 14.4z"/><path class="st3" d="M523.8 95l-16.4 67.8L387 133.7l16.4-67.8c1.5-6.4 8-10.3 14.4-8.8L515 80.6c6.4 1.5 10.4 8 8.8 14.4z"/><path class="st1" d="M449.7 105.2c2.1-10.4-4.4-20.7-14.8-23.2-10.7-2.6-21.4 4-24 14.7-1.2 5.2-.4 10.5 2.4 15 2.6 4.3 6.7 7.4 11.6 8.8.3.1.5.2.8.3.3.1.6.1.9.1 1.3.3 2.6.4 3.9.4 3.6 0 7.1-1 10.2-2.9 4.3-2.6 7.3-6.6 8.7-11.4.1-.3.2-.5.3-.8v-1zm-27.6 2.6c1.7.7 3.5 1.3 5.4 1.7l-2.3 9.4c-1.4-.8-2.4-2.9-2.8-5.9-.3-1.5-.4-3.3-.3-5.2zm16.4-13c-1.7-.7-3.6-1.3-5.5-1.8l2.3-9.4c1.4.8 2.5 2.9 3 5.9.2 1.7.2 3.5.2 5.3zm.4 7.9c.4-1.9.7-3.8.9-5.7 5.3 2.5 8.4 5.5 8.5 7.9l-9.4-2.2zm-1.4-.4l-6.4-1.5 1.5-6.3c2.1.5 4 1.2 5.8 1.9-.2 1.9-.5 3.9-.9 5.9zm-6-9.6c-1.9-.4-3.8-.7-5.6-.9.8-1.7 1.7-3.2 2.6-4.5 1.8-2.4 3.6-3.8 5.2-3.9l-2.2 9.3zm-.3 1.4l-1.5 6.3-6.2-1.5c.5-2 1.2-3.9 1.9-5.7 1.8.2 3.7.5 5.8.9zm-9.2 4.5l-9.4-2.3c1.1-1.9 4.6-3.2 9.6-3.2h1.5c-.6 1.8-1.2 3.6-1.7 5.5zm-.3 1.4c-.4 1.9-.7 3.8-.9 5.7-5.3-2.5-8.4-5.5-8.5-7.9l9.4 2.2zm1.4.4l6.2 1.5-1.5 6.3c-2.1-.5-3.9-1.2-5.6-1.9.1-1.9.5-3.9.9-5.9zm3.5 18.9l2.3-9.4c2 .4 3.9.8 5.7.9-2.5 5.4-5.6 8.5-8 8.5zm2.6-10.8l1.5-6.3 6.4 1.5c-.5 2.1-1.2 4-1.9 5.7-1.8-.1-3.8-.4-6-.9zm9.4-4.4l9.4 2.3c-1.2 2.1-5.3 3.4-11.1 3.2.6-1.7 1.2-3.6 1.7-5.5zm10.1-2.2c-1.5-2.3-4.6-4.6-8.7-6.4.1-2.2 0-4.2-.3-6.1-.3-2-.8-3.6-1.6-4.8 6.6 3.1 10.8 10 10.6 17.3zm-18.6-19.1h1c-1.2.8-2.4 2-3.6 3.6-1.1 1.5-2.1 3.3-3 5.3-4.6-.2-8.5.4-10.9 1.9 2.8-6.5 9.4-10.7 16.5-10.8zm-18.3 17.8c1.5 2.4 4.6 4.7 8.9 6.6-.1 2.2 0 4.2.3 6.1.3 1.9.8 3.4 1.5 4.6-6.8-3.1-10.9-9.9-10.7-17.3zm28.1 16.4c-3.1 1.9-6.6 2.8-10.1 2.7 2.3-1.6 4.6-4.6 6.4-8.7.7 0 1.4.1 2.1.1 3.5 0 6.5-.6 8.5-1.8-1.5 3.1-3.9 5.8-6.9 7.7z"/><path transform="rotate(-76.438 459.983 192.796)" class="st4" d="M432.9 186.5h54.2V199h-54.2z"/><path transform="rotate(-76.438 380.76 236.1)" class="st5" d="M293 232.6h175.6v7.1H293z"/><path transform="rotate(-76.438 394.488 239.41)" class="st5" d="M306.7 235.9h175.6v7.1H306.7z"/><path transform="rotate(-76.438 408.217 242.721)" class="st5" d="M320.4 239.2H496v7.1H320.4z"/><path transform="rotate(-76.438 429.91 247.953)" class="st5" d="M342.1 245.3h175.6v5.4H342.1z"/><path class="st1" d="M491.7 172.6l-25.1 104 .2-54.3 12.8-52.7z"/><path class="st6" d="M466.1 94.3l5.5 9.5-2.5 5.6-1.3-2.5c-.4-.7-1.2-1-1.9-.6l-.2.1c-.7.4-1 1.2-.6 1.9l1.9 3.8c.1.3.3.4.6.6l-8.3 18.8 1.3 2.4 12.2-16.3 4.2-2.1s2.4 5.2 3.6 6.7c1.2 1.5 2.3 2.9 2.3 2.9l-5.8 11.4 1.6 3.1 8.8-8.2c.5.6 1.9 2.1 2.6 2.2 0 0 .1.1.1 0 0 0 .1 0 .1-.1h.1v-.1c.3-.7-.1-2.6-.3-3.4l11.8-2.5-1.6-3.1-12.7-1.9s-.5-1.7-1-3.5-3.4-6.8-3.4-6.8l4.2-2.1 20.4-.5-1.3-2.4-20.2-4.1c0-.3 0-.5-.1-.8l-1.9-3.8c-.4-.7-1.2-1-1.9-.6l-.2.1c-.7.4-1 1.2-.6 1.9l1.3 2.5-6-1.2-4.6-10c-.7-1.4-5.3-5.9-6.6-5.2-1.3.6-.4 6.9.4 8.3z"/></g><linearGradient id="SVGID_2_" gradientUnits="userSpaceOnUse" x1="471.436" y1="598.42" x2="284.447" y2="331.362"><stop offset="0" stop-color="#e6e6e6" stop-opacity="0"/><stop offset="1" stop-color="#e6e6e6"/></linearGradient><path class="st7" d="M199.1 570.7L286.9 757l335.3-277.7-154.6-308.4z"/><path transform="rotate(178.826 333.91 371.576) scale(1.00001)" class="st2" d="M196.8 175.2h274.3V568H196.8z"/><g id="Text_1_"><path transform="rotate(178.826 301.488 227.27) scale(1.00001)" class="st8" d="M238.7 223.3h125.6v8H238.7z"/><path transform="rotate(178.826 301.813 243.169) scale(1.00001)" class="st8" d="M239 239.2h125.6v8H239z"/><path transform="rotate(178.826 302.137 259.067) scale(1.00001)" class="st8" d="M239.3 255.1h125.6v8H239.3z"/><path transform="rotate(178.826 302.786 290.865) scale(1.00001)" class="st8" d="M240 286.9h125.6v8H240z"/><path transform="rotate(178.826 344.05 305.928) scale(1.00001)" class="st8" d="M240.3 302h207.5v8H240.3z"/><path transform="rotate(178.826 344.704 338.032) scale(1.00001)" class="st8" d="M241 334.1h207.5v8H241z"/><path transform="rotate(178.826 345.029 353.93) scale(1.00001)" class="st8" d="M241.3 350h207.5v8H241.3z"/><path transform="rotate(178.826 345.353 369.83) scale(1.00001)" class="st8" d="M241.6 365.9h207.5v8H241.6z"/><path transform="rotate(178.826 345.677 385.728) scale(1.00001)" class="st8" d="M241.9 381.8h207.5v8H241.9z"/><path transform="rotate(178.826 344.374 321.827) scale(1.00001)" class="st8" d="M240.6 317.9h207.5v8H240.6z"/><path transform="rotate(178.826 333.07 449.913) scale(1.00001)" class="st8" d="M215.4 445.9h235.3v8H215.4z"/><path transform="rotate(178.826 333.393 465.812) scale(1.00001)" class="st8" d="M215.7 461.8H451v8H215.7z"/><path transform="rotate(178.826 375.984 480.848) scale(1.00001)" class="st8" d="M300.6 476.9h150.8v8H300.6z"/><path transform="rotate(178.826 376.308 496.747) scale(1.00001)" class="st8" d="M300.9 492.8h150.8v8H300.9z"/><path transform="rotate(178.826 332.738 433.708) scale(1.00001)" class="st8" d="M215.1 429.7h235.3v8H215.1z"/><path transform="rotate(178.826 302.461 274.966) scale(1.00001)" class="st8" d="M239.7 271h125.6v8H239.7z"/><path transform="rotate(178.826 219.01 228.953) scale(1.00001)" class="st1" d="M210.9 225h16.2v8h-16.2z"/><path transform="rotate(178.826 219.335 244.851) scale(1.00001)" class="st1" d="M211.2 240.9h16.2v8h-16.2z"/><path transform="rotate(178.826 219.66 260.75) scale(1.00001)" class="st1" d="M211.5 256.8h16.2v8h-16.2z"/><path transform="rotate(178.826 220.308 292.547) scale(1.00001)" class="st4" d="M212.2 288.6h16.2v8h-16.2z"/><path transform="rotate(178.826 219.984 276.649) scale(1.00001)" class="st1" d="M211.9 272.7h16.2v8h-16.2z"/><path transform="rotate(178.826 220.639 308.753) scale(1.00001)" class="st1" d="M212.5 304.8h16.2v8h-16.2z"/><path transform="rotate(178.826 220.963 324.651) scale(1.00001)" class="st1" d="M212.8 320.7H229v8h-16.2z"/><path transform="rotate(178.826 221.288 340.55) scale(1.00001)" class="st1" d="M213.2 336.6h16.2v8h-16.2z"/><path transform="rotate(178.826 221.937 372.347) scale(1.00001)" class="st1" d="M213.8 368.4H230v8h-16.2z"/><path transform="rotate(178.826 222.26 388.246) scale(1.00001)" class="st1" d="M214.1 384.3h16.2v8h-16.2z"/><path transform="rotate(178.826 221.612 356.449) scale(1.00001)" class="st4" d="M213.5 352.5h16.2v8h-16.2z"/></g><path transform="rotate(178.826 411.302 256.84) scale(1.00001)" class="st9" d="M375.8 221.1h71v71.6h-71z"/><path class="st4" d="M426.5 289.8v-.9l-1.6-2.5-1.4-2.2-1.8-2.9c0-.1 0-.1-.1-.1l-.3-.5-1-1.6v-3.3c0-.1-.1-.1-.2-.1h-.8c-1.6-2.9-2.8-5.7-3.8-9.9l.6-2.3v-.3c0-.1-.1-.1-.2-.1h-1.1c-.1-.6-.2-1.2-.3-1.9-.1-.8-.3-1.7-.4-2.6l-.3-2.4c-.1-.7-.2-1.5-.3-2.2-.1-.5-.1-1.1-.2-1.6v-.1s0-.1-.1-.1c-.1-.5-.1-1-.2-1.5-.1-.6-.1-1.2-.2-1.9-.1-.6-.1-1.2-.2-1.8 0-.4-.1-.8-.1-1.3v-.1c0-.4-.1-.8-.1-1.3 0-.4-.1-.9-.1-1.3 0-.6-.1-1.1-.1-1.7 0-.5-.1-1.1-.1-1.6s-.1-1-.1-1.5v-.1c0-.5-.1-1-.1-1.5s-.1-1-.1-1.5-.1-1-.1-1.5l-.1-1.1c0-.5-.1-1-.1-1.5v-.2c.5-.3.8-.8.7-1.4v-.6c0-.2-.2-.3-.5-.4v-.9h.5c.1 0 .1-.1.1-.2v-.7c0-.1-.1-.1-.2-.1-.4 0-.9-.2-1.2-.8-.3-.5-.5-1.3-.5-2.4 0-.2 0-.3-.1-.4-.1-.1-.2-.2-.3-.2-.1 0-.2.1-.3.2-.1.1-.1.3-.1.4 0 1.1-.1 1.9-.4 2.4-.3.6-.8.9-1.2.9-.1 0-.1.1-.1.2v.7c0 .1.1.1.2.1h.5v.9c-.3.1-.5.3-.5.4v.6c0 .7.3 1.1.8 1.4v.2c0 .9-.1 1.8-.1 2.6 0 1.6-.1 3.1-.2 4.6-.2 5.6-.4 10.3-.7 14.3v.1c-.3 4.2-.6 7.6-1 10.4 0 .2-.1.4-.1.5h-1.1c-.1 0-.1.1-.1.2v.3l.7 2.3-.3 1.2c-.7 3.1-1.5 5.4-2.6 7.7-.2.4-.4.8-.5 1.1h-.8c-.1 0-.1.1-.1.2v3.3l-1 1.7-.3.6-1.8 3.1-1.3 2.3-1.5 2.5v.1l.1 2.9 21-.4 9.2-.2.1-2.7zm-13.6-14.2h-4.6c.1-.3.1-.7.2-1 .2-.9.3-1.7.5-2.6.1-.8.3-1.7.4-2.7v-.1c0-.2 0-.3.1-.5l3.1-.1c0 .2.1.4.1.6.1 1 .3 1.8.5 2.7.2.9.4 1.7.6 2.6.1.3.2.7.3 1l-1.2.1zm3.5 13.5l-13.1.3c.1-.2.1-.5.2-.7.5-1.7 1.6-3 2.9-3.9.2-.1.4-.3.6-.4.1-.1.2-.1.3-.1 1.2-.6 2.7-1 4.1-1 1.1 0 2.2.1 3.2.5.3.1.6.2.9.4.1 0 .2.1.3.1l.6.3c1.4.8 2.5 2.1 3.1 3.8.1.2.1.4.2.7h-3.3z"/><ellipse transform="rotate(-48.002 391.943 232.129)" class="st2" cx="391.9" cy="232.1" rx="1.2" ry="1.2"/><ellipse transform="rotate(-48.002 426.068 249.197)" class="st2" cx="426" cy="249.2" rx="1" ry="1"/><ellipse transform="rotate(-48.002 389.014 266.859)" class="st2" cx="389" cy="266.9" rx="2" ry="2"/><ellipse transform="rotate(-48.002 432.181 229.67)" class="st2" cx="432.2" cy="229.7" rx=".6" ry=".6"/><ellipse transform="rotate(-48.002 439.622 278.312)" class="st2" cx="439.6" cy="278.3" rx=".5" ry=".5"/><ellipse transform="rotate(-48.002 400.516 252.165)" class="st2" cx="400.5" cy="252.2" rx=".7" ry=".7"/><ellipse transform="rotate(-48.002 380.383 238.585)" class="st2" cx="380.4" cy="238.6" rx="1.5" ry="1.5"/><ellipse transform="rotate(-48.002 441.66 245.553)" class="st2" cx="441.6" cy="245.6" rx=".7" ry=".7"/><ellipse transform="rotate(-48.002 426.154 267.533)" class="st2" cx="426.1" cy="267.5" rx=".5" ry=".5"/><ellipse transform="rotate(-48.002 382.377 286.959)" class="st2" cx="382.4" cy="287" rx=".7" ry=".7"/></svg>